<?xml version="1.0" encoding="UTF-8"?>
<svg id="Layer_1" xmlns="http://www.w3.org/2000/svg" version="1.1" viewBox="0 0 150.68 36.7">
  <!-- Generator: Adobe Illustrator 30.4.0, SVG Export Plug-In . SVG Version: 2.1.4 Build 226)  -->
  <defs>
    <style>
      .st0, .st1 {
        fill: #fd49c6;
      }

      .st2 {
        fill: none;
        stroke: #f2ede4;
      }

      .st2, .st1 {
        stroke-miterlimit: 10;
      }

      .st1 {
        stroke: #fff2dd;
        stroke-width: .25px;
      }

      .st3 {
        fill: #750016;
      }
    </style>
  </defs>
  <g>
    <path class="st3" d="M5.6,23.7c0-1.06.23-5.5.29-9.05.03-2.45.06-5.09.06-7.81,0-.41-.15-.68-.46-.68h-.09c-1.39,0-2.03,3.92-3.37,3.92-1.16,0-1.51-2.34-1.51-4.34,0-1.85.52-3.62,1.94-3.62.93,0,1.77.57,3.94.57h4.23c2.15,0,2.99-.57,3.92-.57,1.45,0,1.94,1.77,1.94,3.62,0,2-.35,4.34-1.51,4.34-1.33,0-1.97-3.92-3.36-3.92h-.09c-.29,0-.44.26-.44.68,0,5.58.09,12.29.09,16.85,0,1.21-.61,2.07-2.76,2.07s-2.84-.87-2.84-2.07Z"/>
    <path class="st3" d="M18.79,23.55c0-1.32.38-2.9.38-8.94v-6.52c0-2.53-1.42-2.26-1.42-3.62s2.03-2.11,4.03-2.11c1.83,0,2.61.9,2.61,3.28v5.84c0,.41.12.64.46.64h3.63c.35,0,.46-.23.46-.64v-6.82c0-1.4.58-2.3,2.73-2.3s2.84.87,2.84,2.22-.32,2.94-.32,8.71v6.71c0,2.53,1.39,2.26,1.39,3.62s-2.03,2.15-4.03,2.15c-1.8,0-2.61-.91-2.61-3.32v-6.18c0-.42-.12-.64-.46-.64h-3.63c-.35,0-.46.23-.46.64v7.2c0,1.4-.58,2.3-2.73,2.3s-2.87-.91-2.87-2.22Z"/>
    <path class="st3" d="M44.78,25.48c-1.8,0-3.48.08-5.13.08s-2.12-.79-2.12-1.92c0-.98.35-4.98.35-8.97v-6c0-3.17-1.42-2.83-1.42-4.19,0-1.43,1.83-1.96,4.41-1.96,1.42,0,2.52.11,4.06.11s3.1-.26,4.03-.26c1.42,0,1.91,1.7,1.91,3.54,0,1.55-.29,3.21-1.33,3.21-1.33,0-2.18-3.17-4.73-3.17h-1.16c-.41,0-.58.26-.58.75v4.6c0,.49.17.75.58.75h2.78c.61,0,.81.45.81,1.43,0,1.47-.52,2.22-1.13,2.22h-2.47c-.41,0-.58.26-.58,1.09v4.56c0,.49.17.75.58.75h1.28c2.44,0,3.45-3.43,4.81-3.43,1.1,0,1.36,1.89,1.36,3.51,0,1.85-.52,3.51-1.91,3.51-.93,0-2.81-.23-4.41-.23Z"/>
    <path class="st3" d="M65.02,25.44c-1.86,0-3.45.08-5.25.08-1.54,0-1.94-.75-1.94-1.88s.35-4.98.35-9.01v-6.52c0-2.53-1.42-2.26-1.42-3.62s2.03-2.11,4-2.11c1.86,0,2.64.9,2.64,3.28v15.69c0,.49.2.75.58.75h1.02c2.47,0,3.57-3.88,4.93-3.88,1.19,0,1.36,2.07,1.36,3.96s-.49,3.54-1.91,3.54c-.93,0-2.81-.26-4.35-.26Z"/>
    <path class="st3" d="M72.88,23.78c0-1.13.35-5.09.35-9.12v-6.56c0-2.53-1.42-2.26-1.42-3.62s2.03-2.11,4-2.11c1.86,0,2.64.9,2.64,3.28v18.06c0,1.21-.58,2.07-2.73,2.07s-2.84-.87-2.84-2Z"/>
    <path class="st3" d="M94.69,25.7c-1.1,0-1.77-.41-2.41-1.7l-6.41-12.37c-.15-.3-.26-.34-.41-.34-.09,0-.23.11-.23.38,0,3.77.29,10.48.29,12.4,0,1.06-.46,1.58-1.97,1.58s-2-.53-2-1.58c0-1.77.58-9.69.58-16.18,0-2.04-1.6-2.22-1.6-3.36s1.42-2.34,3.45-2.34c2.21,0,3.45,1.06,5.19,4.41l4.15,7.88c.14.26.23.3.38.3.12,0,.23-.11.23-.38,0-4.3-.49-8.79-.49-10.52,0-1.06.46-1.58,2-1.58s1.97.53,1.97,1.58c0,1.28-.23,6.45-.32,10.63-.06,3.02.03,8.26.03,9.35,0,.98-.61,1.81-2.12,1.81h-.32Z"/>
    <path class="st3" d="M107.68,25.48c-1.8,0-3.48.08-5.13.08s-2.12-.79-2.12-1.92c0-.98.35-4.98.35-8.97v-6c0-3.17-1.42-2.83-1.42-4.19,0-1.43,1.83-1.96,4.41-1.96,1.42,0,2.52.11,4.06.11s3.1-.26,4.03-.26c1.42,0,1.91,1.7,1.91,3.54,0,1.55-.29,3.21-1.33,3.21-1.33,0-2.18-3.17-4.73-3.17h-1.16c-.41,0-.58.26-.58.75v4.6c0,.49.17.75.58.75h2.78c.61,0,.81.45.81,1.43,0,1.47-.52,2.22-1.13,2.22h-2.47c-.41,0-.58.26-.58,1.09v4.56c0,.49.17.75.58.75h1.28c2.44,0,3.45-3.43,4.82-3.43,1.1,0,1.36,1.89,1.36,3.51,0,1.85-.52,3.51-1.92,3.51-.93,0-2.81-.23-4.41-.23Z"/>
    <path class="st3" d="M116.43,17.9c0-4.22.23-5.54.23-9.8,0-2.53-1.39-2.26-1.39-3.62s2.03-2.11,4-2.11c1.83,0,2.64.9,2.64,3.28,0,4.41-.26,6.49-.26,10.97,0,3.54.84,5.35,3.1,5.35s3.1-1.81,3.1-5.35c0-5.81-.29-10.56-.29-12.44,0-1.36.52-1.73,2-1.73s1.97.57,1.97,1.55c0,1.21-.26,11.16-.41,14.37-.23,4.3-2.32,7.88-7.31,7.88s-7.4-3.24-7.4-8.33Z"/>
    <path class="st3" d="M134.44,23.78c0-1.13.35-5.09.35-9.12v-6.56c0-2.53-1.36-2.22-1.36-3.62,0-.83.87-2.26,6.7-2.26h.12c5.71,0,8.73,3.43,8.73,7.99s-3.16,7.88-8.12,7.88c-.73,0-.84.3-.84.91v4.71c0,1.06-.46,2.07-2.67,2.07s-2.9-.87-2.9-2ZM143.58,10.05c0-3.66-2.03-4.56-2.87-4.56h-.09c-.55,0-.7.19-.7.79v7.73c0,.64.15.87.78.87,1.19,0,2.87-1.28,2.87-4.83Z"/>
  </g>
  <g>
    <g>
      <path class="st1" d="M2.4,29.39c0-1.65,1.45-3.77,2.61-3.77.47,0,.76.33.76.87s-.91,1.98-2.69,1.75c-.15.39-.24.79-.24,1.14,0,.57.19.79.73.79,1.1,0,3.59-1.64,4.97-3.24.03-.04.08-.07.14-.07.12,0,.22.13.22.28,0,.09-.02.16-.07.22-1.57,1.71-4.04,3.37-5.25,3.37-.77,0-1.16-.44-1.16-1.35ZM5.34,26.5c0-.22-.09-.31-.32-.31-.56,0-1.24.68-1.69,1.52,1.4.09,2.01-.87,2.01-1.21Z"/>
      <path class="st1" d="M7.15,30.04c0-1.71,2.18-4.53,3.5-4.53.46,0,.86.36,1.02.88.15-.27.32-.51.47-.76.03-.05.09-.1.16-.1.12,0,.22.13.22.28,0,.08-.02.14-.06.19-.63,1.04-1.31,2.59-1.31,3.38,0,.56.17.78.61.78.9,0,2.67-1.14,4.23-3.34.04-.05.09-.08.15-.08.12,0,.22.13.22.28,0,.09-.03.16-.07.22-1.88,2.44-3.49,3.48-4.52,3.48-.67,0-1.04-.46-1.04-1.34,0-.29.07-.66.09-.79.06-.26-.07-.23-.18-.1-1.4,1.66-2.23,2.36-2.83,2.36-.42,0-.65-.28-.65-.83ZM11.34,26.84c-.05-.45-.32-.78-.68-.78-1.09,0-3.07,2.57-3.07,3.97,0,.23.03.27.22.27.58,0,1.68-1.07,3.54-3.47Z"/>
      <path class="st1" d="M13.25,33.32c.8-2.48,2.72-6.59,4.34-9.63-1.34.24-2.62.54-3.59.82-.02.01-.03.01-.05.01-.12,0-.22-.13-.22-.28,0-.14.07-.25.17-.27,1.06-.31,2.52-.66,4.02-.9.61-.96,1.24-2.12,1.68-2.57.04-.04.09-.08.15-.08.12,0,.22.13.22.28,0,.08-.02.15-.07.2-.35.45-.91,1.33-1.4,2.07,1.41-.19,2.83-.27,3.99-.13.12.01.2.13.2.28s-.1.28-.22.28h-.02c-1.23-.15-2.77-.04-4.28.18-1.52,2.82-3.4,6.76-4.33,9.36.12.05.15.18.09.36-.13.4-.33.8-.53.8-.29,0-.28-.39-.15-.8Z"/>
      <path class="st1" d="M19.19,30.46c.03-.23.21-.41.38-.41s.28.18.25.41c-.03.23-.21.41-.38.41s-.28-.18-.25-.41Z"/>
      <path class="st1" d="M22.69,30.16c0-1.72,2.18-4.53,3.5-4.53.38,0,.64.24.76.67.86-2.86,2.48-6.29,3.71-6.29.37,0,.59.28.59.76,0,1.16-2.13,4.4-4.23,6.93-.16.66-.24,1.23-.24,1.65,0,.65.19.95.61.95.9,0,2.34-1.14,4.23-3.34.03-.04.08-.08.14-.08.12,0,.22.13.22.28,0,.09-.02.16-.07.21-1.98,2.31-3.49,3.49-4.52,3.49-.66,0-1.04-.55-1.04-1.51,0-.27.03-.6.1-.98-1.33,1.51-2.56,2.63-3.13,2.63-.4,0-.62-.29-.62-.83ZM26.66,27.33s0-.04.02-.06c-.07-.01-.1-.12-.09-.3.02-.53-.11-.78-.39-.78-1.09,0-3.07,2.57-3.07,3.97,0,.23.03.27.19.27.54,0,1.92-1.37,3.35-3.1ZM30.82,20.76c0-.11-.03-.19-.16-.19-1.04,0-2.54,3.25-3.34,5.95,1.8-2.29,3.5-4.89,3.5-5.75Z"/>
      <path class="st1" d="M30.55,30.43c-.12-.08-.17-.21-.12-.37.39-1.39,1.48-3.81,1.97-4.59.04-.07.1-.11.17-.11.12,0,.22.13.22.28,0,.07-.02.13-.05.17-.23.38-.62,1.17-1.05,2.14-.19.43-.12.51.16.15,1.11-1.4,2.3-2.47,2.84-2.47.42,0,.53.42.59,1.22.06.84.14,1.06.44,1.06.71,0,1.49-.64,1.82-.93.03-.03.07-.05.12-.05.12,0,.22.13.22.28,0,.1-.04.18-.1.24-.33.29-1.22,1.03-2.06,1.03-.76,0-.83-.95-.87-1.57-.04-.6-.07-.71-.16-.71-.58,0-2.82,2.22-3.82,4.12-.07.15-.17.18-.29.12h-.02Z"/>
      <path class="st1" d="M36.79,29.51c0-1.08.88-2.98,1.42-3.85.03-.06.1-.11.17-.11.12,0,.22.13.22.28,0,.07-.02.13-.05.17-.71,1.16-1.32,2.77-1.32,3.51,0,.56.17.78.61.78.9,0,2.34-1.14,4.23-3.34.03-.04.08-.08.14-.08.12,0,.22.13.22.28,0,.09-.03.16-.07.21-1.98,2.31-3.49,3.49-4.52,3.49-.67,0-1.04-.46-1.04-1.34ZM38.98,24.18c0-.07.02-.13.05-.17.08-.14.23-.35.32-.53.03-.07.1-.11.17-.11.12,0,.22.13.22.28,0,.06-.02.13-.05.18-.1.16-.23.38-.32.52-.04.07-.11.11-.17.11-.12,0-.22-.13-.22-.28Z"/>
      <path class="st1" d="M42.95,25.39c.1-.15.23-.25.37-.25.11,0,.22.09.22.24,0,.33-.42.84-.78,1.31-.61,1.09-1.11,2.08-1.43,2.83-.15.36-.1.55.2.18.15-.18.32-.4.51-.65,1.89-2.45,2.86-3.42,3.56-3.42.32,0,.5.27.5.71s-.18,1.14-.36,1.79c-.19.69-.37,1.37-.37,1.8,0,.26.05.32.2.32.95,0,2.45-1.67,3.86-3.3.03-.04.08-.08.14-.08.12,0,.22.13.22.28,0,.09-.02.16-.07.21-1.41,1.65-3.03,3.45-4.14,3.45-.4,0-.63-.32-.63-.89s.22-1.31.4-2c.17-.65.34-1.23.34-1.6,0-.16-.07-.18-.16-.18-.46,0-1.38.97-3.17,3.29-.78,1-1.23,1.58-1.49,1.58-.19,0-.31-.18-.31-.43,0-.58.73-2.22,1.82-4.16.24-.45.42-.79.59-1.05Z"/>
      <path class="st1" d="M53.16,20.14c.11-.13.22-.2.33-.2.13,0,.25.13.25.28,0,.33-.46.75-.9,1.2-1.23,1.87-2.92,5.41-4.04,8.01-.2.46-.17.63.19.16,1.4-1.83,3.11-3.63,3.96-3.63.35,0,.6.28.6.7,0,1.12-1.49,2.3-3.37,2.75.22.55.71,1,1.13,1,1.07,0,3.16-1.5,4.86-3.47.03-.04.08-.08.14-.08.12,0,.22.13.22.28,0,.09-.02.16-.07.21-1.42,1.66-3.75,3.62-5.14,3.62-.64,0-1.36-.71-1.59-1.54-.76.94-1.5,2-2.07,2.98-.04.07-.1.12-.17.12h-.02c-.12,0-.22-.13-.22-.28,0-.03,0-.08.02-.1.43-1.54,3.28-8.01,5.26-11.11.24-.38.46-.67.65-.91ZM53.11,26.66c0-.09-.03-.14-.17-.14-.49,0-1.6.98-2.75,2.32,1.58-.42,2.91-1.43,2.91-2.18Z"/>
      <path class="st1" d="M56.1,30.46c.03-.23.21-.41.38-.41s.28.18.25.41c-.03.23-.21.41-.38.41s-.28-.18-.25-.41Z"/>
      <path class="st1" d="M60,30.43c-.12-.08-.17-.21-.12-.37.39-1.39,1.48-3.81,1.97-4.59.04-.07.1-.11.17-.11.12,0,.22.13.22.28,0,.07-.02.13-.05.17-.23.38-.62,1.17-1.05,2.14-.19.43-.12.51.16.15,1.11-1.4,2.3-2.47,2.84-2.47.42,0,.53.42.59,1.22.06.84.14,1.06.44,1.06.71,0,1.49-.64,1.82-.93.03-.03.07-.05.12-.05.12,0,.22.13.22.28,0,.1-.04.18-.1.24-.33.29-1.22,1.03-2.06,1.03-.76,0-.83-.95-.87-1.57-.04-.6-.07-.71-.16-.71-.58,0-2.82,2.22-3.82,4.12-.07.15-.17.18-.29.12h-.02Z"/>
      <path class="st1" d="M66.12,29.39c0-1.65,1.45-3.77,2.61-3.77.46,0,.76.33.76.87s-.91,1.98-2.69,1.75c-.15.39-.24.79-.24,1.14,0,.57.19.79.73.79,1.1,0,3.59-1.64,4.97-3.24.03-.04.08-.07.14-.07.12,0,.22.13.22.28,0,.09-.03.16-.07.22-1.57,1.71-4.04,3.37-5.25,3.37-.77,0-1.16-.44-1.16-1.35ZM69.05,26.5c0-.22-.09-.31-.32-.31-.56,0-1.24.68-1.69,1.52,1.4.09,2.01-.87,2.01-1.21Z"/>
      <path class="st1" d="M68.85,35.37s0-.07.02-.11c.23-.72,1.72-4.24,2.72-6.6.29-.69.54-1.28.71-1.67.03-.09.11-.15.19-.15.12,0,.22.13.22.28,0,.05,0,.1-.02.14-.17.39-.42.97-.71,1.67-.46,1.13-.39,1-.17.63,1.65-2.75,3.14-4.3,4.09-4.3.46,0,.74.38.74,1,0,.54-.17,1.17-.44,1.79,1.35-.4,2.76-.84,3.57-1.65.03-.03.08-.05.13-.05.12,0,.22.13.22.28,0,.1-.03.17-.09.23-.92.92-2.52,1.39-3.93,1.8-.08.02-.16.04-.23.08-.71,1.28-1.76,2.39-2.53,2.39-.39,0-.68-.3-.68-.76,0-1.17,1.41-1.67,2.96-2.14.36-.68.6-1.4.6-1.97,0-.32-.09-.44-.31-.44-1.25,0-4.22,3.74-6.62,9.67-.03.09-.11.15-.19.15-.12,0-.22-.13-.22-.28ZM75.16,28.95c-1.59.53-2.1.91-2.1,1.43,0,.12.07.19.25.19.52,0,1.26-.71,1.85-1.62Z"/>
      <path class="st1" d="M78.48,29.39c0-1.65,1.45-3.77,2.61-3.77.46,0,.76.33.76.87s-.91,1.98-2.69,1.75c-.15.39-.24.79-.24,1.14,0,.57.19.79.73.79,1.1,0,3.59-1.64,4.97-3.24.03-.04.08-.07.14-.07.12,0,.22.13.22.28,0,.09-.03.16-.07.22-1.57,1.71-4.04,3.37-5.25,3.37-.77,0-1.16-.44-1.16-1.35ZM81.41,26.5c0-.22-.09-.31-.32-.31-.56,0-1.24.68-1.69,1.52,1.4.09,2.01-.87,2.01-1.21Z"/>
      <path class="st1" d="M83.23,30.04c0-1.71,2.18-4.53,3.5-4.53.46,0,.85.36,1.02.88.15-.27.32-.51.47-.76.03-.05.09-.1.16-.1.12,0,.22.13.22.28,0,.08-.03.14-.06.19-.63,1.04-1.31,2.59-1.31,3.38,0,.56.17.78.61.78.9,0,2.67-1.14,4.23-3.34.04-.05.09-.08.15-.08.12,0,.22.13.22.28,0,.09-.03.16-.07.22-1.88,2.44-3.49,3.48-4.52,3.48-.67,0-1.04-.46-1.04-1.34,0-.29.07-.66.09-.79.06-.26-.07-.23-.18-.1-1.4,1.66-2.23,2.36-2.83,2.36-.42,0-.65-.28-.65-.83ZM87.41,26.84c-.05-.45-.32-.78-.68-.78-1.09,0-3.07,2.57-3.07,3.97,0,.23.03.27.22.27.58,0,1.68-1.07,3.54-3.47Z"/>
      <path class="st1" d="M89.32,33.32c.8-2.48,2.72-6.59,4.34-9.63-1.34.24-2.62.54-3.59.82-.02.01-.03.01-.05.01-.12,0-.22-.13-.22-.28,0-.14.07-.25.17-.27,1.06-.31,2.52-.66,4.02-.9.61-.96,1.24-2.12,1.68-2.57.04-.04.09-.08.15-.08.12,0,.22.13.22.28,0,.08-.03.15-.07.2-.35.45-.91,1.33-1.4,2.07,1.41-.19,2.83-.27,3.99-.13.12.01.2.13.2.28s-.1.28-.22.28h-.03c-1.23-.15-2.77-.04-4.28.18-1.52,2.82-3.4,6.76-4.33,9.36.12.05.15.18.09.36-.13.4-.33.8-.53.8-.29,0-.28-.39-.15-.8Z"/>
      <path class="st1" d="M95.26,30.46c.03-.23.21-.41.38-.41s.28.18.25.41c-.03.23-.21.41-.38.41s-.28-.18-.25-.41Z"/>
    </g>
    <g>
      <path class="st2" d="M2.4,29.39c0-1.65,1.45-3.77,2.61-3.77.47,0,.76.33.76.87s-.91,1.98-2.69,1.75c-.15.39-.24.79-.24,1.14,0,.57.19.79.73.79,1.1,0,3.59-1.64,4.97-3.24.03-.04.08-.07.14-.07.12,0,.22.13.22.28,0,.09-.02.16-.07.22-1.57,1.71-4.04,3.37-5.25,3.37-.77,0-1.16-.44-1.16-1.35ZM5.34,26.5c0-.22-.09-.31-.32-.31-.56,0-1.24.68-1.69,1.52,1.4.09,2.01-.87,2.01-1.21Z"/>
      <path class="st2" d="M7.15,30.04c0-1.71,2.18-4.53,3.5-4.53.46,0,.86.36,1.02.88.15-.27.32-.51.47-.76.03-.05.09-.1.16-.1.12,0,.22.13.22.28,0,.08-.02.14-.06.19-.63,1.04-1.31,2.59-1.31,3.38,0,.56.17.78.61.78.9,0,2.67-1.14,4.23-3.34.04-.05.09-.08.15-.08.12,0,.22.13.22.28,0,.09-.03.16-.07.22-1.88,2.44-3.49,3.48-4.52,3.48-.67,0-1.04-.46-1.04-1.34,0-.29.07-.66.09-.79.06-.26-.07-.23-.18-.1-1.4,1.66-2.23,2.36-2.83,2.36-.42,0-.65-.28-.65-.83ZM11.34,26.84c-.05-.45-.32-.78-.68-.78-1.09,0-3.07,2.57-3.07,3.97,0,.23.03.27.22.27.58,0,1.68-1.07,3.54-3.47Z"/>
      <path class="st2" d="M13.25,33.32c.8-2.48,2.72-6.59,4.34-9.63-1.34.24-2.62.54-3.59.82-.02.01-.03.01-.05.01-.12,0-.22-.13-.22-.28,0-.14.07-.25.17-.27,1.06-.31,2.52-.66,4.02-.9.61-.96,1.24-2.12,1.68-2.57.04-.04.09-.08.15-.08.12,0,.22.13.22.28,0,.08-.02.15-.07.2-.35.45-.91,1.33-1.4,2.07,1.41-.19,2.83-.27,3.99-.13.12.01.2.13.2.28s-.1.28-.22.28h-.02c-1.23-.15-2.77-.04-4.28.18-1.52,2.82-3.4,6.76-4.33,9.36.12.05.15.18.09.36-.13.4-.33.8-.53.8-.29,0-.28-.39-.15-.8Z"/>
      <path class="st2" d="M19.19,30.46c.03-.23.21-.41.38-.41s.28.18.25.41c-.03.23-.21.41-.38.41s-.28-.18-.25-.41Z"/>
      <path class="st2" d="M22.69,30.16c0-1.72,2.18-4.53,3.5-4.53.38,0,.64.24.76.67.86-2.86,2.48-6.29,3.71-6.29.37,0,.59.28.59.76,0,1.16-2.13,4.4-4.23,6.93-.16.66-.24,1.23-.24,1.65,0,.65.19.95.61.95.9,0,2.34-1.14,4.23-3.34.03-.04.08-.08.14-.08.12,0,.22.13.22.28,0,.09-.02.16-.07.21-1.98,2.31-3.49,3.49-4.52,3.49-.66,0-1.04-.55-1.04-1.51,0-.27.03-.6.1-.98-1.33,1.51-2.56,2.63-3.13,2.63-.4,0-.62-.29-.62-.83ZM26.66,27.33s0-.04.02-.06c-.07-.01-.1-.12-.09-.3.02-.53-.11-.78-.39-.78-1.09,0-3.07,2.57-3.07,3.97,0,.23.03.27.19.27.54,0,1.92-1.37,3.35-3.1ZM30.82,20.76c0-.11-.03-.19-.16-.19-1.04,0-2.54,3.25-3.34,5.95,1.8-2.29,3.5-4.89,3.5-5.75Z"/>
      <path class="st2" d="M30.55,30.43c-.12-.08-.17-.21-.12-.37.39-1.39,1.48-3.81,1.97-4.59.04-.07.1-.11.17-.11.12,0,.22.13.22.28,0,.07-.02.13-.05.17-.23.38-.62,1.17-1.05,2.14-.19.43-.12.51.16.15,1.11-1.4,2.3-2.47,2.84-2.47.42,0,.53.42.59,1.22.06.84.14,1.06.44,1.06.71,0,1.49-.64,1.82-.93.03-.03.07-.05.12-.05.12,0,.22.13.22.28,0,.1-.04.18-.1.24-.33.29-1.22,1.03-2.06,1.03-.76,0-.83-.95-.87-1.57-.04-.6-.07-.71-.16-.71-.58,0-2.82,2.22-3.82,4.12-.07.15-.17.18-.29.12h-.02Z"/>
      <path class="st2" d="M36.79,29.51c0-1.08.88-2.98,1.42-3.85.03-.06.1-.11.17-.11.12,0,.22.13.22.28,0,.07-.02.13-.05.17-.71,1.16-1.32,2.77-1.32,3.51,0,.56.17.78.61.78.9,0,2.34-1.14,4.23-3.34.03-.04.08-.08.14-.08.12,0,.22.13.22.28,0,.09-.03.16-.07.21-1.98,2.31-3.49,3.49-4.52,3.49-.67,0-1.04-.46-1.04-1.34ZM38.98,24.18c0-.07.02-.13.05-.17.08-.14.23-.35.32-.53.03-.07.1-.11.17-.11.12,0,.22.13.22.28,0,.06-.02.13-.05.18-.1.16-.23.38-.32.52-.04.07-.11.11-.17.11-.12,0-.22-.13-.22-.28Z"/>
      <path class="st2" d="M42.95,25.39c.1-.15.23-.25.37-.25.11,0,.22.09.22.24,0,.33-.42.84-.78,1.31-.61,1.09-1.11,2.08-1.43,2.83-.15.36-.1.55.2.18.15-.18.32-.4.51-.65,1.89-2.45,2.86-3.42,3.56-3.42.32,0,.5.27.5.71s-.18,1.14-.36,1.79c-.19.69-.37,1.37-.37,1.8,0,.26.05.32.2.32.95,0,2.45-1.67,3.86-3.3.03-.04.08-.08.14-.08.12,0,.22.13.22.28,0,.09-.02.16-.07.21-1.41,1.65-3.03,3.45-4.14,3.45-.4,0-.63-.32-.63-.89s.22-1.31.4-2c.17-.65.34-1.23.34-1.6,0-.16-.07-.18-.16-.18-.46,0-1.38.97-3.17,3.29-.78,1-1.23,1.58-1.49,1.58-.19,0-.31-.18-.31-.43,0-.58.73-2.22,1.82-4.16.24-.45.42-.79.59-1.05Z"/>
      <path class="st2" d="M53.16,20.14c.11-.13.22-.2.33-.2.13,0,.25.13.25.28,0,.33-.46.75-.9,1.2-1.23,1.87-2.92,5.41-4.04,8.01-.2.46-.17.63.19.16,1.4-1.83,3.11-3.63,3.96-3.63.35,0,.6.28.6.7,0,1.12-1.49,2.3-3.37,2.75.22.55.71,1,1.13,1,1.07,0,3.16-1.5,4.86-3.47.03-.04.08-.08.14-.08.12,0,.22.13.22.28,0,.09-.02.16-.07.21-1.42,1.66-3.75,3.62-5.14,3.62-.64,0-1.36-.71-1.59-1.54-.76.94-1.5,2-2.07,2.98-.04.07-.1.12-.17.12h-.02c-.12,0-.22-.13-.22-.28,0-.03,0-.08.02-.1.43-1.54,3.28-8.01,5.26-11.11.24-.38.46-.67.65-.91ZM53.11,26.66c0-.09-.03-.14-.17-.14-.49,0-1.6.98-2.75,2.32,1.58-.42,2.91-1.43,2.91-2.18Z"/>
      <path class="st2" d="M56.1,30.46c.03-.23.21-.41.38-.41s.28.18.25.41c-.03.23-.21.41-.38.41s-.28-.18-.25-.41Z"/>
      <path class="st2" d="M60,30.43c-.12-.08-.17-.21-.12-.37.39-1.39,1.48-3.81,1.97-4.59.04-.07.1-.11.17-.11.12,0,.22.13.22.28,0,.07-.02.13-.05.17-.23.38-.62,1.17-1.05,2.14-.19.43-.12.51.16.15,1.11-1.4,2.3-2.47,2.84-2.47.42,0,.53.42.59,1.22.06.84.14,1.06.44,1.06.71,0,1.49-.64,1.82-.93.03-.03.07-.05.12-.05.12,0,.22.13.22.28,0,.1-.04.18-.1.24-.33.29-1.22,1.03-2.06,1.03-.76,0-.83-.95-.87-1.57-.04-.6-.07-.71-.16-.71-.58,0-2.82,2.22-3.82,4.12-.07.15-.17.18-.29.12h-.02Z"/>
      <path class="st2" d="M66.12,29.39c0-1.65,1.45-3.77,2.61-3.77.46,0,.76.33.76.87s-.91,1.98-2.69,1.75c-.15.39-.24.79-.24,1.14,0,.57.19.79.73.79,1.1,0,3.59-1.64,4.97-3.24.03-.04.08-.07.14-.07.12,0,.22.13.22.28,0,.09-.03.16-.07.22-1.57,1.71-4.04,3.37-5.25,3.37-.77,0-1.16-.44-1.16-1.35ZM69.05,26.5c0-.22-.09-.31-.32-.31-.56,0-1.24.68-1.69,1.52,1.4.09,2.01-.87,2.01-1.21Z"/>
      <path class="st2" d="M68.85,35.37s0-.07.02-.11c.23-.72,1.72-4.24,2.72-6.6.29-.69.54-1.28.71-1.67.03-.09.11-.15.19-.15.12,0,.22.13.22.28,0,.05,0,.1-.02.14-.17.39-.42.97-.71,1.67-.46,1.13-.39,1-.17.63,1.65-2.75,3.14-4.3,4.09-4.3.46,0,.74.38.74,1,0,.54-.17,1.17-.44,1.79,1.35-.4,2.76-.84,3.57-1.65.03-.03.08-.05.13-.05.12,0,.22.13.22.28,0,.1-.03.17-.09.23-.92.92-2.52,1.39-3.93,1.8-.08.02-.16.04-.23.08-.71,1.28-1.76,2.39-2.53,2.39-.39,0-.68-.3-.68-.76,0-1.17,1.41-1.67,2.96-2.14.36-.68.6-1.4.6-1.97,0-.32-.09-.44-.31-.44-1.25,0-4.22,3.74-6.62,9.67-.03.09-.11.15-.19.15-.12,0-.22-.13-.22-.28ZM75.16,28.95c-1.59.53-2.1.91-2.1,1.43,0,.12.07.19.25.19.52,0,1.26-.71,1.85-1.62Z"/>
      <path class="st2" d="M78.48,29.39c0-1.65,1.45-3.77,2.61-3.77.46,0,.76.33.76.87s-.91,1.98-2.69,1.75c-.15.39-.24.79-.24,1.14,0,.57.19.79.73.79,1.1,0,3.59-1.64,4.97-3.24.03-.04.08-.07.14-.07.12,0,.22.13.22.28,0,.09-.03.16-.07.22-1.57,1.71-4.04,3.37-5.25,3.37-.77,0-1.16-.44-1.16-1.35ZM81.41,26.5c0-.22-.09-.31-.32-.31-.56,0-1.24.68-1.69,1.52,1.4.09,2.01-.87,2.01-1.21Z"/>
      <path class="st2" d="M83.23,30.04c0-1.71,2.18-4.53,3.5-4.53.46,0,.85.36,1.02.88.15-.27.32-.51.47-.76.03-.05.09-.1.16-.1.12,0,.22.13.22.28,0,.08-.03.14-.06.19-.63,1.04-1.31,2.59-1.31,3.38,0,.56.17.78.61.78.9,0,2.67-1.14,4.23-3.34.04-.05.09-.08.15-.08.12,0,.22.13.22.28,0,.09-.03.16-.07.22-1.88,2.44-3.49,3.48-4.52,3.48-.67,0-1.04-.46-1.04-1.34,0-.29.07-.66.09-.79.06-.26-.07-.23-.18-.1-1.4,1.66-2.23,2.36-2.83,2.36-.42,0-.65-.28-.65-.83ZM87.41,26.84c-.05-.45-.32-.78-.68-.78-1.09,0-3.07,2.57-3.07,3.97,0,.23.03.27.22.27.58,0,1.68-1.07,3.54-3.47Z"/>
      <path class="st2" d="M89.32,33.32c.8-2.48,2.72-6.59,4.34-9.63-1.34.24-2.62.54-3.59.82-.02.01-.03.01-.05.01-.12,0-.22-.13-.22-.28,0-.14.07-.25.17-.27,1.06-.31,2.52-.66,4.02-.9.61-.96,1.24-2.12,1.68-2.57.04-.04.09-.08.15-.08.12,0,.22.13.22.28,0,.08-.03.15-.07.2-.35.45-.91,1.33-1.4,2.07,1.41-.19,2.83-.27,3.99-.13.12.01.2.13.2.28s-.1.28-.22.28h-.03c-1.23-.15-2.77-.04-4.28.18-1.52,2.82-3.4,6.76-4.33,9.36.12.05.15.18.09.36-.13.4-.33.8-.53.8-.29,0-.28-.39-.15-.8Z"/>
      <path class="st2" d="M95.26,30.46c.03-.23.21-.41.38-.41s.28.18.25.41c-.03.23-.21.41-.38.41s-.28-.18-.25-.41Z"/>
    </g>
    <g>
      <path class="st0" d="M2.4,29.39c0-1.65,1.45-3.77,2.61-3.77.47,0,.76.33.76.87s-.91,1.98-2.69,1.75c-.15.39-.24.79-.24,1.14,0,.57.19.79.73.79,1.1,0,3.59-1.64,4.97-3.24.03-.04.08-.07.14-.07.12,0,.22.13.22.28,0,.09-.02.16-.07.22-1.57,1.71-4.04,3.37-5.25,3.37-.77,0-1.16-.44-1.16-1.35ZM5.34,26.5c0-.22-.09-.31-.32-.31-.56,0-1.24.68-1.69,1.52,1.4.09,2.01-.87,2.01-1.21Z"/>
      <path class="st0" d="M7.15,30.04c0-1.71,2.18-4.53,3.5-4.53.46,0,.86.36,1.02.88.15-.27.32-.51.47-.76.03-.05.09-.1.16-.1.12,0,.22.13.22.28,0,.08-.02.14-.06.19-.63,1.04-1.31,2.59-1.31,3.38,0,.56.17.78.61.78.9,0,2.67-1.14,4.23-3.34.04-.05.09-.08.15-.08.12,0,.22.13.22.28,0,.09-.03.16-.07.22-1.88,2.44-3.49,3.48-4.52,3.48-.67,0-1.04-.46-1.04-1.34,0-.29.07-.66.09-.79.06-.26-.07-.23-.18-.1-1.4,1.66-2.23,2.36-2.83,2.36-.42,0-.65-.28-.65-.83ZM11.34,26.84c-.05-.45-.32-.78-.68-.78-1.09,0-3.07,2.57-3.07,3.97,0,.23.03.27.22.27.58,0,1.68-1.07,3.54-3.47Z"/>
      <path class="st0" d="M13.25,33.32c.8-2.48,2.72-6.59,4.34-9.63-1.34.24-2.62.54-3.59.82-.02.01-.03.01-.05.01-.12,0-.22-.13-.22-.28,0-.14.07-.25.17-.27,1.06-.31,2.52-.66,4.02-.9.61-.96,1.24-2.12,1.68-2.57.04-.04.09-.08.15-.08.12,0,.22.13.22.28,0,.08-.02.15-.07.2-.35.45-.91,1.33-1.4,2.07,1.41-.19,2.83-.27,3.99-.13.12.01.2.13.2.28s-.1.28-.22.28h-.02c-1.23-.15-2.77-.04-4.28.18-1.52,2.82-3.4,6.76-4.33,9.36.12.05.15.18.09.36-.13.4-.33.8-.53.8-.29,0-.28-.39-.15-.8Z"/>
      <path class="st0" d="M19.19,30.46c.03-.23.21-.41.38-.41s.28.18.25.41c-.03.23-.21.41-.38.41s-.28-.18-.25-.41Z"/>
      <path class="st0" d="M22.69,30.16c0-1.72,2.18-4.53,3.5-4.53.38,0,.64.24.76.67.86-2.86,2.48-6.29,3.71-6.29.37,0,.59.28.59.76,0,1.16-2.13,4.4-4.23,6.93-.16.66-.24,1.23-.24,1.65,0,.65.19.95.61.95.9,0,2.34-1.14,4.23-3.34.03-.04.08-.08.14-.08.12,0,.22.13.22.28,0,.09-.02.16-.07.21-1.98,2.31-3.49,3.49-4.52,3.49-.66,0-1.04-.55-1.04-1.51,0-.27.03-.6.1-.98-1.33,1.51-2.56,2.63-3.13,2.63-.4,0-.62-.29-.62-.83ZM26.66,27.33s0-.04.02-.06c-.07-.01-.1-.12-.09-.3.02-.53-.11-.78-.39-.78-1.09,0-3.07,2.57-3.07,3.97,0,.23.03.27.19.27.54,0,1.92-1.37,3.35-3.1ZM30.82,20.76c0-.11-.03-.19-.16-.19-1.04,0-2.54,3.25-3.34,5.95,1.8-2.29,3.5-4.89,3.5-5.75Z"/>
      <path class="st0" d="M30.55,30.43c-.12-.08-.17-.21-.12-.37.39-1.39,1.48-3.81,1.97-4.59.04-.07.1-.11.17-.11.12,0,.22.13.22.28,0,.07-.02.13-.05.17-.23.38-.62,1.17-1.05,2.14-.19.43-.12.51.16.15,1.11-1.4,2.3-2.47,2.84-2.47.42,0,.53.42.59,1.22.06.84.14,1.06.44,1.06.71,0,1.49-.64,1.82-.93.03-.03.07-.05.12-.05.12,0,.22.13.22.28,0,.1-.04.18-.1.24-.33.29-1.22,1.03-2.06,1.03-.76,0-.83-.95-.87-1.57-.04-.6-.07-.71-.16-.71-.58,0-2.82,2.22-3.82,4.12-.07.15-.17.18-.29.12h-.02Z"/>
      <path class="st0" d="M36.79,29.51c0-1.08.88-2.98,1.42-3.85.03-.06.1-.11.17-.11.12,0,.22.13.22.28,0,.07-.02.13-.05.17-.71,1.16-1.32,2.77-1.32,3.51,0,.56.17.78.61.78.9,0,2.34-1.14,4.23-3.34.03-.04.08-.08.14-.08.12,0,.22.13.22.28,0,.09-.03.16-.07.21-1.98,2.31-3.49,3.49-4.52,3.49-.67,0-1.04-.46-1.04-1.34ZM38.98,24.18c0-.07.02-.13.05-.17.08-.14.23-.35.32-.53.03-.07.1-.11.17-.11.12,0,.22.13.22.28,0,.06-.02.13-.05.18-.1.16-.23.38-.32.52-.04.07-.11.11-.17.11-.12,0-.22-.13-.22-.28Z"/>
      <path class="st0" d="M42.95,25.39c.1-.15.23-.25.37-.25.11,0,.22.09.22.24,0,.33-.42.84-.78,1.31-.61,1.09-1.11,2.08-1.43,2.83-.15.36-.1.55.2.18.15-.18.32-.4.51-.65,1.89-2.45,2.86-3.42,3.56-3.42.32,0,.5.27.5.71s-.18,1.14-.36,1.79c-.19.69-.37,1.37-.37,1.8,0,.26.05.32.2.32.95,0,2.45-1.67,3.86-3.3.03-.04.08-.08.14-.08.12,0,.22.13.22.28,0,.09-.02.16-.07.21-1.41,1.65-3.03,3.45-4.14,3.45-.4,0-.63-.32-.63-.89s.22-1.31.4-2c.17-.65.34-1.23.34-1.6,0-.16-.07-.18-.16-.18-.46,0-1.38.97-3.17,3.29-.78,1-1.23,1.58-1.49,1.58-.19,0-.31-.18-.31-.43,0-.58.73-2.22,1.82-4.16.24-.45.42-.79.59-1.05Z"/>
      <path class="st0" d="M53.16,20.14c.11-.13.22-.2.33-.2.13,0,.25.13.25.28,0,.33-.46.75-.9,1.2-1.23,1.87-2.92,5.41-4.04,8.01-.2.46-.17.63.19.16,1.4-1.83,3.11-3.63,3.96-3.63.35,0,.6.28.6.7,0,1.12-1.49,2.3-3.37,2.75.22.55.71,1,1.13,1,1.07,0,3.16-1.5,4.86-3.47.03-.04.08-.08.14-.08.12,0,.22.13.22.28,0,.09-.02.16-.07.21-1.42,1.66-3.75,3.62-5.14,3.62-.64,0-1.36-.71-1.59-1.54-.76.94-1.5,2-2.07,2.98-.04.07-.1.12-.17.12h-.02c-.12,0-.22-.13-.22-.28,0-.03,0-.08.02-.1.43-1.54,3.28-8.01,5.26-11.11.24-.38.46-.67.65-.91ZM53.11,26.66c0-.09-.03-.14-.17-.14-.49,0-1.6.98-2.75,2.32,1.58-.42,2.91-1.43,2.91-2.18Z"/>
      <path class="st0" d="M56.1,30.46c.03-.23.21-.41.38-.41s.28.18.25.41c-.03.23-.21.41-.38.41s-.28-.18-.25-.41Z"/>
      <path class="st0" d="M60,30.43c-.12-.08-.17-.21-.12-.37.39-1.39,1.48-3.81,1.97-4.59.04-.07.1-.11.17-.11.12,0,.22.13.22.28,0,.07-.02.13-.05.17-.23.38-.62,1.17-1.05,2.14-.19.43-.12.51.16.15,1.11-1.4,2.3-2.47,2.84-2.47.42,0,.53.42.59,1.22.06.84.14,1.06.44,1.06.71,0,1.49-.64,1.82-.93.03-.03.07-.05.12-.05.12,0,.22.13.22.28,0,.1-.04.18-.1.24-.33.29-1.22,1.03-2.06,1.03-.76,0-.83-.95-.87-1.57-.04-.6-.07-.71-.16-.71-.58,0-2.82,2.22-3.82,4.12-.07.15-.17.18-.29.12h-.02Z"/>
      <path class="st0" d="M66.12,29.39c0-1.65,1.45-3.77,2.61-3.77.46,0,.76.33.76.87s-.91,1.98-2.69,1.75c-.15.39-.24.79-.24,1.14,0,.57.19.79.73.79,1.1,0,3.59-1.64,4.97-3.24.03-.04.08-.07.14-.07.12,0,.22.13.22.28,0,.09-.03.16-.07.22-1.57,1.71-4.04,3.37-5.25,3.37-.77,0-1.16-.44-1.16-1.35ZM69.05,26.5c0-.22-.09-.31-.32-.31-.56,0-1.24.68-1.69,1.52,1.4.09,2.01-.87,2.01-1.21Z"/>
      <path class="st0" d="M68.85,35.37s0-.07.02-.11c.23-.72,1.72-4.24,2.72-6.6.29-.69.54-1.28.71-1.67.03-.09.11-.15.19-.15.12,0,.22.13.22.28,0,.05,0,.1-.02.14-.17.39-.42.97-.71,1.67-.46,1.13-.39,1-.17.63,1.65-2.75,3.14-4.3,4.09-4.3.46,0,.74.38.74,1,0,.54-.17,1.17-.44,1.79,1.35-.4,2.76-.84,3.57-1.65.03-.03.08-.05.13-.05.12,0,.22.13.22.28,0,.1-.03.17-.09.23-.92.92-2.52,1.39-3.93,1.8-.08.02-.16.04-.23.08-.71,1.28-1.76,2.39-2.53,2.39-.39,0-.68-.3-.68-.76,0-1.17,1.41-1.67,2.96-2.14.36-.68.6-1.4.6-1.97,0-.32-.09-.44-.31-.44-1.25,0-4.22,3.74-6.62,9.67-.03.09-.11.15-.19.15-.12,0-.22-.13-.22-.28ZM75.16,28.95c-1.59.53-2.1.91-2.1,1.43,0,.12.07.19.25.19.52,0,1.26-.71,1.85-1.62Z"/>
      <path class="st0" d="M78.48,29.39c0-1.65,1.45-3.77,2.61-3.77.46,0,.76.33.76.87s-.91,1.98-2.69,1.75c-.15.39-.24.79-.24,1.14,0,.57.19.79.73.79,1.1,0,3.59-1.64,4.97-3.24.03-.04.08-.07.14-.07.12,0,.22.13.22.28,0,.09-.03.16-.07.22-1.57,1.71-4.04,3.37-5.25,3.37-.77,0-1.16-.44-1.16-1.35ZM81.41,26.5c0-.22-.09-.31-.32-.31-.56,0-1.24.68-1.69,1.52,1.4.09,2.01-.87,2.01-1.21Z"/>
      <path class="st0" d="M83.23,30.04c0-1.71,2.18-4.53,3.5-4.53.46,0,.85.36,1.02.88.15-.27.32-.51.47-.76.03-.05.09-.1.16-.1.12,0,.22.13.22.28,0,.08-.03.14-.06.19-.63,1.04-1.31,2.59-1.31,3.38,0,.56.17.78.61.78.9,0,2.67-1.14,4.23-3.34.04-.05.09-.08.15-.08.12,0,.22.13.22.28,0,.09-.03.16-.07.22-1.88,2.44-3.49,3.48-4.52,3.48-.67,0-1.04-.46-1.04-1.34,0-.29.07-.66.09-.79.06-.26-.07-.23-.18-.1-1.4,1.66-2.23,2.36-2.83,2.36-.42,0-.65-.28-.65-.83ZM87.41,26.84c-.05-.45-.32-.78-.68-.78-1.09,0-3.07,2.57-3.07,3.97,0,.23.03.27.22.27.58,0,1.68-1.07,3.54-3.47Z"/>
      <path class="st0" d="M89.32,33.32c.8-2.48,2.72-6.59,4.34-9.63-1.34.24-2.62.54-3.59.82-.02.01-.03.01-.05.01-.12,0-.22-.13-.22-.28,0-.14.07-.25.17-.27,1.06-.31,2.52-.66,4.02-.9.61-.96,1.24-2.12,1.68-2.57.04-.04.09-.08.15-.08.12,0,.22.13.22.28,0,.08-.03.15-.07.2-.35.45-.91,1.33-1.4,2.07,1.41-.19,2.83-.27,3.99-.13.12.01.2.13.2.28s-.1.28-.22.28h-.03c-1.23-.15-2.77-.04-4.28.18-1.52,2.82-3.4,6.76-4.33,9.36.12.05.15.18.09.36-.13.4-.33.8-.53.8-.29,0-.28-.39-.15-.8Z"/>
      <path class="st0" d="M95.26,30.46c.03-.23.21-.41.38-.41s.28.18.25.41c-.03.23-.21.41-.38.41s-.28-.18-.25-.41Z"/>
    </g>
  </g>
</svg>