<?xml version="1.0" encoding="UTF-8"?>
<svg id="Layer_1" xmlns="http://www.w3.org/2000/svg" version="1.1" viewBox="0 0 150.68 36.7">
  <!-- Generator: Adobe Illustrator 30.4.0, SVG Export Plug-In . SVG Version: 2.1.4 Build 226)  -->
  <defs>
    <style>
      .st0 {
        fill: #fd49c6;
      }

      .st1 {
        fill: #f2ede4;
      }

      .st2 {
        fill: #750016;
      }
    </style>
  </defs>
  <g>
    <path class="st1" d="M5.6,23.7c0-1.06.23-5.5.29-9.05.03-2.45.06-5.09.06-7.81,0-.41-.15-.68-.46-.68h-.09c-1.39,0-2.03,3.92-3.37,3.92-1.16,0-1.51-2.34-1.51-4.34,0-1.85.52-3.62,1.94-3.62.93,0,1.77.57,3.94.57h4.23c2.15,0,2.99-.57,3.92-.57,1.45,0,1.94,1.77,1.94,3.62,0,2-.35,4.34-1.51,4.34-1.33,0-1.97-3.92-3.36-3.92h-.09c-.29,0-.44.26-.44.68,0,5.58.09,12.29.09,16.85,0,1.21-.61,2.07-2.76,2.07s-2.84-.87-2.84-2.07h.02Z"/>
    <path class="st1" d="M18.79,23.55c0-1.32.38-2.9.38-8.94v-6.52c0-2.53-1.42-2.26-1.42-3.62s2.03-2.11,4.03-2.11c1.83,0,2.61.9,2.61,3.28v5.84c0,.41.12.64.46.64h3.63c.35,0,.46-.23.46-.64v-6.82c0-1.4.58-2.3,2.73-2.3s2.84.87,2.84,2.22-.32,2.94-.32,8.71v6.71c0,2.53,1.39,2.26,1.39,3.62s-2.03,2.15-4.03,2.15c-1.8,0-2.61-.91-2.61-3.32v-6.18c0-.42-.12-.64-.46-.64h-3.63c-.35,0-.46.23-.46.64v7.2c0,1.4-.58,2.3-2.73,2.3s-2.87-.91-2.87-2.22Z"/>
    <path class="st1" d="M44.78,25.48c-1.8,0-3.48.08-5.13.08s-2.12-.79-2.12-1.92c0-.98.35-4.98.35-8.97v-6c0-3.17-1.42-2.83-1.42-4.19,0-1.43,1.83-1.96,4.41-1.96,1.42,0,2.52.11,4.06.11s3.1-.26,4.03-.26c1.42,0,1.91,1.7,1.91,3.54,0,1.55-.29,3.21-1.33,3.21-1.33,0-2.18-3.17-4.73-3.17h-1.16c-.41,0-.58.26-.58.75v4.6c0,.49.17.75.58.75h2.78c.61,0,.81.45.81,1.43,0,1.47-.52,2.22-1.13,2.22h-2.47c-.41,0-.58.26-.58,1.09v4.56c0,.49.17.75.58.75h1.28c2.44,0,3.45-3.43,4.81-3.43,1.1,0,1.36,1.89,1.36,3.51,0,1.85-.52,3.51-1.91,3.51-.93,0-2.81-.23-4.41-.23v.02Z"/>
    <path class="st1" d="M65.02,25.44c-1.86,0-3.45.08-5.25.08-1.54,0-1.94-.75-1.94-1.88s.35-4.98.35-9.01v-6.52c0-2.53-1.42-2.26-1.42-3.62s2.03-2.11,4-2.11c1.86,0,2.64.9,2.64,3.28v15.69c0,.49.2.75.58.75h1.02c2.47,0,3.57-3.88,4.93-3.88,1.19,0,1.36,2.07,1.36,3.96s-.49,3.54-1.91,3.54c-.93,0-2.81-.26-4.35-.26v-.02Z"/>
    <path class="st1" d="M72.88,23.78c0-1.13.35-5.09.35-9.12v-6.56c0-2.53-1.42-2.26-1.42-3.62s2.03-2.11,4-2.11c1.86,0,2.64.9,2.64,3.28v18.06c0,1.21-.58,2.07-2.73,2.07s-2.84-.87-2.84-2Z"/>
    <path class="st1" d="M94.69,25.7c-1.1,0-1.77-.41-2.41-1.7l-6.41-12.37c-.15-.3-.26-.34-.41-.34-.09,0-.23.11-.23.38,0,3.77.29,10.48.29,12.4,0,1.06-.46,1.58-1.97,1.58s-2-.53-2-1.58c0-1.77.58-9.69.58-16.18,0-2.04-1.6-2.22-1.6-3.36s1.42-2.34,3.45-2.34c2.21,0,3.45,1.06,5.19,4.41l4.15,7.88c.14.26.23.3.38.3.12,0,.23-.11.23-.38,0-4.3-.49-8.79-.49-10.52,0-1.06.46-1.58,2-1.58s1.97.53,1.97,1.58c0,1.28-.23,6.45-.32,10.63-.06,3.02.03,8.26.03,9.35,0,.98-.61,1.81-2.12,1.81h-.32v.03Z"/>
    <path class="st1" d="M107.68,25.48c-1.8,0-3.48.08-5.13.08s-2.12-.79-2.12-1.92c0-.98.35-4.98.35-8.97v-6c0-3.17-1.42-2.83-1.42-4.19,0-1.43,1.83-1.96,4.41-1.96,1.42,0,2.52.11,4.06.11s3.1-.26,4.03-.26c1.42,0,1.91,1.7,1.91,3.54,0,1.55-.29,3.21-1.33,3.21-1.33,0-2.18-3.17-4.73-3.17h-1.16c-.41,0-.58.26-.58.75v4.6c0,.49.17.75.58.75h2.78c.61,0,.81.45.81,1.43,0,1.47-.52,2.22-1.13,2.22h-2.47c-.41,0-.58.26-.58,1.09v4.56c0,.49.17.75.58.75h1.28c2.44,0,3.45-3.43,4.82-3.43,1.1,0,1.36,1.89,1.36,3.51,0,1.85-.52,3.51-1.92,3.51-.93,0-2.81-.23-4.41-.23v.02Z"/>
    <path class="st1" d="M116.43,17.9c0-4.22.23-5.54.23-9.8,0-2.53-1.39-2.26-1.39-3.62s2.03-2.11,4-2.11c1.83,0,2.64.9,2.64,3.28,0,4.41-.26,6.49-.26,10.97,0,3.54.84,5.35,3.1,5.35s3.1-1.81,3.1-5.35c0-5.81-.29-10.56-.29-12.44,0-1.36.52-1.73,2-1.73s1.97.57,1.97,1.55c0,1.21-.26,11.16-.41,14.37-.23,4.3-2.32,7.88-7.31,7.88s-7.4-3.24-7.4-8.33l.02-.02Z"/>
    <path class="st1" d="M134.44,23.78c0-1.13.35-5.09.35-9.12v-6.56c0-2.53-1.36-2.22-1.36-3.62,0-.83.87-2.26,6.7-2.26h.12c5.71,0,8.73,3.43,8.73,7.99s-3.16,7.88-8.12,7.88c-.73,0-.84.3-.84.91v4.71c0,1.06-.46,2.07-2.67,2.07s-2.9-.87-2.9-2h-.01ZM143.58,10.05c0-3.66-2.03-4.56-2.87-4.56h-.09c-.55,0-.7.19-.7.79v7.73c0,.64.15.87.78.87,1.19,0,2.87-1.28,2.87-4.83h0Z"/>
  </g>
  <g>
    <g>
      <g>
        <path class="st0" d="M3.58,30.98c-.57,0-1.25-.22-1.39-1.21h-.02s-.02-.38-.02-.38c0-1.8,1.58-4.02,2.86-4.02.61,0,1.01.44,1.01,1.12,0,.61-.87,2.02-2.56,2.02-.07,0-.14,0-.21,0-.1.32-.16.61-.16.87,0,.47.11.54.48.54,1.02,0,3.43-1.59,4.78-3.15.07-.09.2-.16.33-.16.26,0,.47.24.47.53,0,.15-.04.28-.13.38-1.54,1.68-4.09,3.46-5.44,3.46ZM5.02,26.44c-.35,0-.84.41-1.24,1.01.47-.05.77-.25.96-.41.27-.24.35-.48.35-.54l-.07-.06Z"/>
        <path class="st2" d="M5.01,25.62c.47,0,.76.33.76.87,0,.5-.78,1.77-2.31,1.77-.12,0-.25,0-.38-.02-.15.39-.24.79-.24,1.14,0,.57.19.79.73.79,1.1,0,3.59-1.64,4.97-3.24.03-.04.08-.07.14-.07.12,0,.22.13.22.28,0,.09-.02.16-.07.22-1.57,1.71-4.04,3.37-5.25,3.37-.77,0-1.16-.44-1.16-1.35h-.02c0-1.64,1.45-3.76,2.61-3.76M3.51,27.72c1.27,0,1.83-.89,1.83-1.22,0-.22-.09-.31-.32-.31-.56,0-1.24.68-1.69,1.52.06,0,.12,0,.18,0M5.01,25.12c-1.54,0-3.11,2.48-3.11,4.27v.81l.12-.06c.21.7.76,1.09,1.56,1.09,1.47,0,4.06-1.83,5.62-3.53.14-.17.2-.35.2-.56,0-.43-.32-.78-.72-.78-.21,0-.41.1-.54.27-1.34,1.55-3.72,3.04-4.57,3.04-.14,0-.19-.02-.21-.03,0,0-.02-.07-.02-.26,0-.18.03-.39.09-.62,0,0,.02,0,.02,0,1.82,0,2.81-1.5,2.81-2.27,0-.82-.51-1.37-1.26-1.37h0Z"/>
      </g>
      <g>
        <path class="st0" d="M7.81,31.1c-.18,0-.52-.05-.73-.37l-.17.35v-1.04c-.01-1.88,2.27-4.78,3.74-4.78.41,0,.79.23,1.05.61.02-.02.17-.26.23-.36.06-.11.2-.22.37-.22.26,0,.47.24.47.53,0,.13-.04.25-.12.35-.61,1.01-1.25,2.51-1.25,3.22,0,.53.15.53.36.53.84,0,2.54-1.13,4.03-3.23.1-.12.22-.19.35-.19.26,0,.47.24.47.53,0,.13-.04.25-.11.36-1.76,2.29-3.48,3.59-4.73,3.59-.82,0-1.29-.58-1.29-1.59,0-.13.01-.27.03-.4-1.27,1.52-2.06,2.12-2.7,2.12ZM10.66,26.31c-.87,0-2.82,2.37-2.82,3.72h0c.56-.09,1.63-1.19,3.24-3.26-.06-.28-.22-.46-.42-.46Z"/>
        <path class="st2" d="M10.65,25.51c.46,0,.86.36,1.02.88.15-.27.32-.51.47-.76.03-.05.09-.1.16-.1.12,0,.22.13.22.28,0,.08-.02.14-.06.19-.63,1.04-1.31,2.59-1.31,3.38,0,.56.17.78.61.78.9,0,2.67-1.14,4.23-3.34.04-.05.09-.08.15-.08.12,0,.22.13.22.28,0,.09-.03.16-.07.22-1.88,2.44-3.49,3.48-4.52,3.48-.67,0-1.04-.46-1.04-1.34,0-.29.07-.66.09-.79.03-.14,0-.2-.04-.2-.04,0-.09.04-.14.1-1.4,1.66-2.23,2.36-2.83,2.36-.42,0-.65-.28-.65-.83v.02c-.01-1.71,2.17-4.53,3.49-4.53M7.81,30.3c.58,0,1.68-1.07,3.54-3.47h-.01c-.05-.44-.32-.77-.68-.77-1.09,0-3.07,2.57-3.07,3.97,0,.23.03.27.22.27M10.65,25.01c-1.73,0-4,3.16-4,5.03v2.12l.5-1c.2.14.43.19.66.19.64,0,1.34-.46,2.44-1.65.1.96.65,1.52,1.52,1.52,1.34,0,3.09-1.31,4.92-3.67.12-.18.17-.35.17-.53,0-.43-.32-.78-.72-.78-.21,0-.4.1-.54.27-1.55,2.18-3.17,3.15-3.84,3.15-.05,0-.08,0-.09,0,0-.01-.02-.09-.02-.27,0-.59.55-1.98,1.23-3.1.1-.13.14-.29.14-.47,0-.43-.32-.78-.72-.78-.24,0-.46.13-.59.34-.01.02-.03.05-.04.07-.28-.27-.64-.43-1.02-.43h0ZM8.14,29.64c.3-1.24,1.85-3.08,2.52-3.08.05,0,.1.06.14.16-1.49,1.91-2.27,2.64-2.66,2.92h0Z"/>
      </g>
      <g>
        <path class="st0" d="M13.4,34.35c-.16,0-.29-.07-.38-.18-.14-.2-.15-.51-.01-.94l.49-1.54v.19c.92-2.4,2.4-5.5,3.63-7.85-1.08.21-2.17.46-3.06.72h-.03s-.08.02-.08.02c-.26,0-.47-.24-.47-.53,0-.26.15-.47.37-.52,1.19-.35,2.62-.67,3.92-.88.16-.25.32-.52.48-.78.43-.72.84-1.4,1.17-1.73.04-.04.16-.16.33-.16.26,0,.47.24.47.53,0,.19-.08.31-.14.38-.24.31-.63.9-1,1.48l-.07.1c.79-.09,1.53-.14,2.19-.14.48,0,.93.02,1.32.07.24.02.42.24.42.53s-.21.53-.47.53c-.42-.05-.83-.07-1.28-.07-.83,0-1.79.08-2.86.23-1.37,2.55-3.23,6.4-4.2,9.06.08.12.11.29.04.51-.21.64-.47.97-.77.97Z"/>
        <path class="st2" d="M19.75,20.42c.12,0,.22.13.22.28,0,.08-.02.15-.07.2-.35.45-.91,1.33-1.4,2.07.92-.12,1.84-.2,2.69-.2.46,0,.89.02,1.3.07.12.01.2.13.2.28s-.1.28-.22.28h-.02c-.39-.05-.81-.07-1.25-.07-.95,0-1.99.1-3.03.25-1.52,2.82-3.4,6.76-4.33,9.36.12.05.15.18.09.36-.13.4-.33.8-.53.8-.29,0-.28-.39-.15-.8v.02c.8-2.48,2.72-6.59,4.34-9.63-1.34.24-2.62.54-3.59.82-.02.01-.03.01-.05.01-.12,0-.22-.13-.22-.28,0-.14.07-.25.17-.27,1.06-.31,2.52-.66,4.02-.9.61-.96,1.24-2.12,1.68-2.57.04-.04.09-.08.15-.08M19.75,19.92c-.18,0-.35.08-.5.23-.35.36-.77,1.05-1.21,1.78-.14.23-.28.46-.42.69-1.28.22-2.67.53-3.86.88-.29.06-.53.37-.53.75,0,.43.32.78.72.78.06,0,.13,0,.22-.04.73-.21,1.61-.42,2.5-.61-.98,1.89-2.07,4.19-2.92,6.21v-.49l-.98,3.06c-.16.51-.15.9.05,1.16.13.18.34.29.58.29.43,0,.76-.37,1.01-1.15.08-.24.07-.44,0-.61.96-2.6,2.74-6.3,4.09-8.81,1.01-.14,1.92-.21,2.7-.21.44,0,.84.02,1.19.07h.03s.03,0,.03,0c.42,0,.74-.35.74-.78s-.28-.75-.66-.78c-.39-.05-.85-.07-1.34-.07-.52,0-1.09.03-1.69.08.29-.45.58-.87.78-1.13.09-.1.19-.27.19-.52,0-.43-.32-.78-.72-.78h0Z"/>
      </g>
      <g>
        <path class="st0" d="M19.44,31.12c-.14,0-.27-.06-.36-.16-.12-.13-.17-.32-.14-.53.05-.35.33-.63.63-.63.14,0,.27.06.36.16.12.13.17.32.14.53-.04.35-.33.63-.63.63Z"/>
        <path class="st2" d="M19.57,30.05c.17,0,.28.18.25.41-.03.23-.21.41-.38.41s-.28-.18-.25-.41c.03-.23.21-.41.38-.41M19.57,29.55c-.43,0-.81.37-.88.85-.04.28.04.54.2.73.14.16.34.25.55.25.43,0,.81-.37.88-.85.04-.28-.04-.54-.2-.73-.14-.16-.34-.25-.55-.25h0Z"/>
      </g>
      <g>
        <path class="st0" d="M23.32,31.25c-.51,0-.83-.36-.87-.97v-.12c-.01-1.88,2.26-4.78,3.74-4.78.28,0,.52.1.7.29.76-2.31,2.31-5.91,3.77-5.91.51,0,.84.4.84,1.01,0,1.4-2.53,4.96-4.25,7.05-.14.61-.22,1.13-.22,1.53,0,.7.23.7.36.7.47,0,1.61-.42,4.04-3.25.07-.1.2-.17.33-.17.26,0,.47.24.47.53,0,.16-.05.29-.14.39-2.05,2.39-3.59,3.56-4.7,3.56-.81,0-1.29-.66-1.29-1.76,0-.07,0-.15,0-.22-1.31,1.41-2.24,2.12-2.79,2.12ZM26.2,26.44c-.87,0-2.82,2.37-2.82,3.72h0c.43-.13,1.47-1.04,3-2.87-.03-.08-.05-.19-.04-.33.01-.37-.06-.47-.08-.5l-.06-.02ZM30.57,20.83c-.64.17-1.7,2.02-2.55,4.35,1.47-1.99,2.48-3.71,2.55-4.35Z"/>
        <path class="st2" d="M30.66,20.01c.37,0,.59.28.59.76,0,1.16-2.13,4.4-4.23,6.93-.16.66-.24,1.23-.24,1.65,0,.65.19.95.61.95.9,0,2.34-1.14,4.23-3.34.03-.04.08-.08.14-.08.12,0,.22.13.22.28,0,.09-.02.16-.07.21-1.98,2.31-3.49,3.49-4.52,3.49-.66,0-1.04-.55-1.04-1.51,0-.27.03-.6.1-.98-1.33,1.51-2.56,2.63-3.13,2.63-.4,0-.62-.29-.62-.83h-.01c0-1.73,2.18-4.54,3.5-4.54.38,0,.64.24.76.67.86-2.86,2.48-6.29,3.71-6.29M27.32,26.52c1.8-2.29,3.5-4.89,3.5-5.75h0c0-.12-.03-.2-.16-.2-1.04,0-2.54,3.25-3.34,5.95M23.32,30.43c.54,0,1.92-1.37,3.35-3.1h0s0-.04.02-.06c-.07-.01-.1-.12-.09-.3.02-.53-.11-.78-.39-.78-1.09,0-3.07,2.57-3.07,3.97,0,.23.03.27.19.27M30.66,19.51c-1.7,0-3.27,3.94-3.9,5.75-.17-.09-.36-.13-.57-.13-1.73,0-4,3.16-4,5.03v.21l.02.02c.08.82.61,1.11,1.11,1.11.22,0,.83,0,2.55-1.76.13,1.19.84,1.62,1.52,1.62,1.2,0,2.76-1.16,4.9-3.66.12-.12.19-.31.19-.54,0-.43-.32-.78-.72-.78-.21,0-.41.1-.54.28-2.43,2.83-3.49,3.14-3.83,3.14-.03,0-.05,0-.05,0,0,0-.06-.1-.06-.45,0-.36.07-.86.2-1.42,1.52-1.85,4.27-5.59,4.27-7.16,0-.87-.55-1.26-1.09-1.26h0ZM29.2,23.04c.27-.55.54-1,.77-1.33-.19.37-.45.82-.77,1.33h0ZM23.7,29.7c.32-1.17,1.68-2.81,2.38-2.99,0,.05.01.13,0,.25,0,.11,0,.2.01.28-1.13,1.34-1.93,2.12-2.4,2.47h0Z"/>
      </g>
      <g>
        <path class="st0" d="M30.69,30.72c-.05,0-.1,0-.16-.03h-.06l-.09-.08c-.18-.12-.27-.37-.19-.63.4-1.43,1.51-3.88,2-4.65.08-.14.22-.23.38-.23.26,0,.47.24.47.53,0,.12-.04.23-.1.32-.14.24-.36.65-.6,1.18.83-.93,1.78-1.76,2.35-1.76.73,0,.8.87.84,1.45.04.62.1.79.14.82,0,0,.01,0,.02,0,.35,0,.88-.16,1.69-.86.07-.07.17-.11.28-.11.26,0,.47.24.47.53,0,.16-.06.3-.17.42-.82.73-1.59,1.1-2.24,1.1-1,0-1.08-1.17-1.12-1.8,0-.08-.02-.29-.04-.44-.61.29-2.51,2.13-3.47,3.95-.11.24-.3.28-.4.28Z"/>
        <path class="st2" d="M32.57,25.36c.12,0,.22.13.22.28,0,.07-.02.13-.05.17-.23.38-.62,1.17-1.05,2.14-.11.25-.13.38-.08.38.04,0,.12-.07.24-.23,1.11-1.4,2.3-2.47,2.84-2.47.42,0,.53.42.59,1.22.06.84.14,1.06.44,1.06.71,0,1.49-.64,1.82-.93.03-.03.07-.05.12-.05.12,0,.22.13.22.28,0,.1-.04.18-.1.24-.33.29-1.22,1.03-2.06,1.03-.76,0-.83-.95-.87-1.57-.04-.6-.07-.71-.16-.71-.58,0-2.82,2.22-3.82,4.12-.05.1-.11.15-.18.15-.03,0-.07,0-.11-.03h-.03c-.12-.09-.17-.22-.12-.38.39-1.39,1.48-3.81,1.97-4.59.04-.07.1-.11.17-.11M32.57,24.86c-.25,0-.47.14-.6.36-.48.76-1.61,3.24-2.02,4.7-.1.33,0,.68.28.89l.12.12h.13c.07.03.14.04.21.04.13,0,.45-.04.64-.44.77-1.46,2.26-3.02,3.03-3.61,0,0,0,.01,0,.02.04.61.13,2.04,1.37,2.04.71,0,1.52-.39,2.39-1.15.18-.18.27-.39.27-.62,0-.43-.32-.78-.72-.78-.18,0-.35.07-.47.2-.65.57-1.09.74-1.34.77-.02-.1-.04-.28-.06-.59-.04-.59-.13-1.68-1.09-1.68-.41,0-.93.32-1.43.74.02-.07.03-.15.03-.23,0-.43-.32-.78-.72-.78h0Z"/>
      </g>
      <g>
        <path class="st0" d="M37.84,31.1c-.75,0-1.21-.48-1.28-1.34h-.01v-.25c0-1.11.86-3.03,1.45-3.98.06-.13.22-.23.38-.23.26,0,.47.24.47.53,0,.12-.04.23-.1.32-.67,1.1-1.27,2.68-1.27,3.36,0,.53.15.53.36.53.47,0,1.61-.42,4.04-3.25.08-.1.2-.17.33-.17.26,0,.47.24.47.53,0,.14-.04.26-.12.37-2.07,2.41-3.61,3.58-4.72,3.58ZM39.2,24.71c-.26,0-.47-.24-.47-.53,0-.12.04-.23.1-.32.02-.03.06-.1.1-.17.07-.1.14-.22.19-.32.06-.14.22-.25.39-.25.26,0,.47.24.47.53,0,.1-.03.22-.09.31l-.32.53c-.08.13-.23.22-.38.22Z"/>
        <path class="st2" d="M39.52,23.37c.12,0,.22.13.22.28,0,.06-.02.13-.05.18-.1.16-.23.38-.32.52-.04.07-.11.11-.17.11-.12,0-.22-.13-.22-.28,0-.07.02-.13.05-.17.08-.14.23-.35.32-.53.03-.07.1-.11.17-.11M38.38,25.55c.12,0,.22.13.22.28,0,.07-.02.13-.05.17-.71,1.16-1.32,2.77-1.32,3.51,0,.56.17.78.61.78.9,0,2.34-1.14,4.23-3.34.03-.04.08-.08.14-.08.12,0,.22.13.22.28,0,.09-.03.16-.07.21-1.98,2.31-3.49,3.49-4.52,3.49-.67,0-1.04-.46-1.04-1.34h0c0-1.08.88-2.98,1.42-3.85.03-.06.1-.11.17-.11M39.52,22.87c-.27,0-.52.16-.63.41-.04.07-.11.18-.17.27-.04.07-.08.13-.12.19-.08.12-.13.28-.13.44,0,.43.32.78.72.78.25,0,.48-.14.6-.36.04-.06.11-.17.17-.28l.14-.22c.08-.14.13-.3.13-.44,0-.43-.32-.78-.72-.78h0ZM38.38,25.05c-.26,0-.5.15-.62.39-.47.75-1.47,2.79-1.47,4.07v.5h.05c.15.85.68,1.34,1.5,1.34,1.2,0,2.76-1.16,4.9-3.66.13-.16.19-.34.19-.54,0-.43-.32-.78-.72-.78-.21,0-.41.1-.54.28-2.43,2.83-3.49,3.14-3.83,3.14-.05,0-.08,0-.09,0,0-.01-.02-.09-.02-.27,0-.57.53-2.08,1.25-3.25.07-.09.12-.26.12-.43,0-.43-.32-.78-.72-.78h0Z"/>
      </g>
      <g>
        <path class="st0" d="M40.87,31.26c-.33,0-.56-.28-.56-.68,0-.78,1.03-2.77,1.6-3.83l-.46.45,1.3-1.96c.16-.23.36-.36.58-.36.26,0,.47.21.47.49,0,.38-.35.84-.73,1.33l-.1.13c-.38.68-.72,1.33-1,1.9,1.95-2.51,2.87-3.36,3.64-3.36.35,0,.75.25.75.96,0,.48-.19,1.21-.37,1.86-.19.69-.36,1.34-.36,1.73,0,.03,0,.05,0,.07.93-.1,2.61-2.04,3.62-3.21.07-.1.2-.17.33-.17.26,0,.47.24.47.53,0,.16-.05.29-.14.38-1.52,1.78-3.11,3.52-4.32,3.52-.43,0-.88-.3-.88-1.14,0-.53.17-1.17.34-1.79l.14-.55c.12-.45.23-.88.26-1.17-.63.25-2.31,2.42-2.88,3.17-.93,1.19-1.31,1.68-1.69,1.68Z"/>
        <path class="st2" d="M43.32,25.14c.11,0,.22.09.22.24,0,.33-.42.84-.78,1.31-.61,1.09-1.11,2.08-1.43,2.83-.09.22-.11.38-.04.38.04,0,.12-.06.24-.2.15-.18.32-.4.51-.65,1.89-2.45,2.86-3.42,3.56-3.42.32,0,.5.27.5.71s-.18,1.14-.36,1.79c-.19.69-.37,1.37-.37,1.8,0,.26.05.32.2.32.95,0,2.45-1.67,3.86-3.3.03-.04.08-.08.14-.08.12,0,.22.13.22.28,0,.09-.02.16-.07.21-1.41,1.65-3.03,3.45-4.14,3.45-.4,0-.63-.32-.63-.89s.22-1.31.4-2c.17-.65.34-1.23.34-1.6,0-.16-.07-.18-.16-.18-.46,0-1.38.97-3.17,3.29-.78,1-1.23,1.58-1.49,1.58-.19,0-.31-.18-.31-.43,0-.58.73-2.22,1.82-4.16.24-.45.42-.79.59-1.05l-.02.02c.1-.15.23-.25.37-.25M43.32,24.64c-.3,0-.58.17-.79.47h0c-.17.27-.35.6-.57,1.02l-.03.05c-.56,1-1.88,3.45-1.88,4.4,0,.54.34.93.81.93.5,0,.87-.48,1.86-1.75,1.21-1.57,1.92-2.38,2.34-2.78-.04.17-.09.35-.14.54l-.07.27-.07.27c-.17.64-.34,1.29-.34,1.85,0,1.03.61,1.39,1.13,1.39,1.31,0,2.89-1.71,4.52-3.63.12-.11.19-.3.19-.53,0-.43-.32-.78-.72-.78-.21,0-.41.1-.54.28-.81.94-2.27,2.62-3.14,3.02.06-.41.22-.99.33-1.4.23-.82.38-1.46.38-1.92,0-.84-.5-1.21-1-1.21-.54,0-1.11.33-1.95,1.21.23-.33.39-.65.39-.96,0-.41-.32-.74-.72-.74h0Z"/>
      </g>
      <g>
        <path class="st0" d="M47.47,32.78c-.26,0-.47-.24-.47-.53,0-.04,0-.13.04-.2.48-1.67,3.3-8.05,5.28-11.14.02-.04.05-.08.07-.11l-.17.08.75-.9c.16-.19.34-.29.52-.29.27,0,.5.24.5.53,0,.39-.38.77-.81,1.22l-.16.16c-1.08,1.66-2.54,4.66-3.61,7.06,1.02-1.25,2.59-2.94,3.54-2.94.49,0,.85.4.85.95,0,1.16-1.38,2.38-3.26,2.91.22.36.55.59.77.59.98,0,3.03-1.49,4.67-3.38.08-.1.2-.17.33-.17.26,0,.47.24.47.53,0,.16-.05.29-.14.39-1.26,1.48-3.73,3.69-5.32,3.69-.63,0-1.31-.55-1.67-1.29-.67.86-1.29,1.77-1.78,2.61-.09.15-.23.24-.39.24h-.02ZM52.83,26.79c-.29.1-.91.54-1.81,1.49.99-.43,1.69-1.04,1.81-1.49Z"/>
        <path class="st2" d="M53.49,19.94c.13,0,.25.13.25.28,0,.33-.46.75-.9,1.2-1.23,1.87-2.92,5.41-4.04,8.01-.12.27-.16.44-.09.44.04,0,.14-.08.28-.28,1.4-1.83,3.11-3.63,3.96-3.63.35,0,.6.28.6.7,0,1.12-1.49,2.3-3.37,2.75.22.55.71,1,1.13,1,1.07,0,3.16-1.5,4.86-3.47.03-.04.08-.08.14-.08.12,0,.22.13.22.28,0,.09-.02.16-.07.21-1.42,1.66-3.75,3.62-5.14,3.62-.64,0-1.36-.71-1.59-1.54-.76.94-1.5,2-2.07,2.98-.04.07-.1.12-.17.12h-.02c-.12,0-.22-.13-.22-.28,0-.03,0-.08.02-.1.43-1.54,3.28-8.01,5.26-11.11.24-.38.46-.67.65-.91h-.02c.11-.12.22-.19.33-.19M50.19,28.84c1.58-.42,2.91-1.43,2.91-2.18h.01c0-.09-.03-.14-.17-.14-.49,0-1.6.98-2.75,2.32M53.49,19.44c-.26,0-.5.13-.71.38l-1.57,1.86.5-.25c-1.94,3.26-4.43,8.93-4.9,10.53-.06.12-.06.24-.06.29,0,.43.32.78.72.78.27,0,.49-.14.62-.37.43-.73.95-1.52,1.53-2.28.42.65,1.07,1.09,1.7,1.09,1.8,0,4.4-2.48,5.52-3.79.12-.12.19-.3.19-.54,0-.43-.32-.78-.72-.78-.21,0-.41.1-.54.28-1.74,2.01-3.67,3.27-4.46,3.27-.08,0-.21-.07-.35-.21,1.82-.62,3.09-1.83,3.09-3.04,0-.7-.46-1.2-1.1-1.2-.72,0-1.7.8-2.61,1.76.94-2.01,2.02-4.15,2.89-5.48l.12-.12c.48-.48.89-.9.89-1.39,0-.42-.34-.78-.75-.78h0Z"/>
      </g>
      <g>
        <path class="st0" d="M56.35,31.12c-.14,0-.27-.06-.36-.16-.12-.13-.17-.32-.14-.53.04-.35.33-.63.63-.63.14,0,.27.06.36.16.12.13.17.32.14.53-.04.35-.33.63-.63.63Z"/>
        <path class="st2" d="M56.48,30.05c.17,0,.28.18.25.41-.03.23-.21.41-.38.41s-.28-.18-.25-.41c.03-.23.21-.41.38-.41M56.48,29.55c-.43,0-.81.37-.88.85-.04.28.04.54.2.73.14.16.34.25.55.25.43,0,.81-.37.88-.85.04-.28-.04-.54-.2-.73-.14-.16-.34-.25-.55-.25h0Z"/>
      </g>
      <g>
        <path class="st0" d="M60.14,30.72c-.05,0-.1,0-.16-.03h-.06l-.09-.08c-.18-.12-.26-.37-.18-.62.4-1.44,1.51-3.88,2-4.65.08-.14.22-.23.38-.23.26,0,.47.24.47.53,0,.12-.04.23-.1.32-.14.23-.36.66-.6,1.18.83-.93,1.78-1.76,2.35-1.76.73,0,.8.87.84,1.45.04.62.1.79.14.82,0,0,.01,0,.02,0,.35,0,.88-.16,1.69-.86.07-.07.17-.11.28-.11.26,0,.47.24.47.53,0,.16-.06.3-.17.42-.83.73-1.6,1.1-2.24,1.1-1,0-1.08-1.17-1.12-1.8,0-.08-.02-.29-.04-.44-.61.29-2.51,2.13-3.47,3.95-.11.24-.3.28-.4.28Z"/>
        <path class="st2" d="M62.02,25.36c.12,0,.22.13.22.28,0,.07-.02.13-.05.17-.23.38-.62,1.17-1.05,2.14-.11.25-.13.38-.08.38.04,0,.12-.07.24-.23,1.11-1.4,2.3-2.47,2.84-2.47.42,0,.53.42.59,1.22.06.84.14,1.06.44,1.06.71,0,1.49-.64,1.82-.93.03-.03.07-.05.12-.05.12,0,.22.13.22.28,0,.1-.04.18-.1.24-.33.29-1.22,1.03-2.06,1.03-.76,0-.83-.95-.87-1.57-.04-.6-.07-.71-.16-.71-.58,0-2.82,2.22-3.82,4.12-.05.1-.11.15-.18.15-.03,0-.07,0-.11-.03h-.03c-.12-.09-.17-.22-.12-.38.39-1.39,1.48-3.81,1.97-4.59.04-.07.1-.11.17-.11M62.02,24.86c-.25,0-.47.14-.6.36-.48.76-1.61,3.24-2.02,4.7-.1.33,0,.68.28.89l.12.12h.13c.07.03.14.04.21.04.13,0,.45-.04.64-.44.77-1.46,2.26-3.02,3.03-3.61,0,0,0,.01,0,.02.04.61.13,2.04,1.37,2.04.71,0,1.52-.39,2.39-1.15.18-.18.27-.39.27-.62,0-.43-.32-.78-.72-.78-.18,0-.35.07-.47.2-.65.57-1.09.74-1.34.77-.02-.1-.04-.28-.06-.59-.04-.59-.13-1.68-1.09-1.68-.41,0-.93.32-1.43.74.02-.07.03-.15.03-.23,0-.43-.32-.78-.72-.78h0Z"/>
      </g>
      <g>
        <path class="st0" d="M67.3,30.98c-.57,0-1.25-.22-1.38-1.21h-.02s-.02-.38-.02-.38c0-1.66,1.48-4.02,2.86-4.02.6,0,1.01.45,1.01,1.12,0,.61-.87,2.02-2.57,2.02-.07,0-.14,0-.21,0-.1.31-.16.62-.16.87,0,.47.11.54.48.54,1.02,0,3.43-1.59,4.78-3.15.07-.09.2-.16.33-.16.26,0,.47.24.47.53,0,.13-.04.25-.11.36-1.55,1.7-4.1,3.48-5.46,3.48ZM68.73,26.44c-.35,0-.84.41-1.24,1.01.47-.05.77-.25.96-.41.27-.24.35-.48.35-.54l-.07-.06Z"/>
        <path class="st2" d="M68.73,25.62c.46,0,.76.33.76.87,0,.5-.78,1.77-2.31,1.77-.12,0-.25,0-.38-.02-.15.39-.24.79-.24,1.14,0,.57.19.79.73.79,1.1,0,3.59-1.64,4.97-3.24.03-.04.08-.07.14-.07.12,0,.22.13.22.28,0,.09-.03.16-.07.22-1.57,1.71-4.04,3.37-5.25,3.37-.77,0-1.16-.44-1.16-1.35h-.02c0-1.64,1.45-3.76,2.61-3.76M67.22,27.72c1.27,0,1.83-.89,1.83-1.22,0-.22-.09-.31-.32-.31-.56,0-1.24.68-1.69,1.52.06,0,.12,0,.18,0M68.73,25.12c-1.54,0-3.11,2.48-3.11,4.27v.81l.12-.06c.21.7.76,1.09,1.56,1.09,1.47,0,4.06-1.83,5.62-3.53l.03-.03.02-.03c.1-.15.15-.32.15-.5,0-.43-.32-.78-.72-.78-.21,0-.41.1-.54.27-1.34,1.55-3.72,3.04-4.57,3.04-.14,0-.19-.02-.21-.03,0,0-.02-.07-.02-.26,0-.18.03-.39.09-.62,0,0,.02,0,.02,0,1.82,0,2.81-1.5,2.81-2.27s-.52-1.37-1.26-1.37h0Z"/>
      </g>
      <g>
        <path class="st0" d="M69.1,35.89c-.15,0-.29-.08-.38-.21l-.09.03-.03-.33s0-.14.05-.22c.21-.66,1.51-3.75,2.71-6.59.29-.69.54-1.28.71-1.67.06-.17.23-.3.42-.3.26,0,.47.24.47.53,0,.07,0,.16-.05.25-.02.05-.05.11-.08.17.96-1.31,2.11-2.54,3.06-2.54.6,0,.99.49.99,1.25,0,.41-.09.89-.27,1.4,1.25-.38,2.32-.79,2.97-1.44.08-.08.19-.12.31-.12.26,0,.47.24.47.53,0,.16-.05.29-.16.41-.97.97-2.6,1.45-4.04,1.86-.05.01-.09.02-.12.03-.7,1.23-1.79,2.45-2.71,2.45-.54,0-.93-.42-.93-1.01,0-1.39,1.66-1.93,3.04-2.35.33-.65.52-1.29.52-1.76,0-.15-.02-.19-.03-.19-1.09,0-4.04,3.62-6.42,9.52-.06.18-.23.31-.42.31ZM74.48,29.46c-.95.38-1.17.65-1.17.92.24-.04.68-.33,1.17-.92Z"/>
        <path class="st2" d="M75.9,25.26c.46,0,.74.38.74,1,0,.54-.17,1.17-.44,1.79,1.35-.4,2.76-.84,3.57-1.65.03-.03.08-.05.13-.05.12,0,.22.13.22.28,0,.1-.03.17-.09.23-.92.92-2.52,1.39-3.93,1.8-.08.02-.16.04-.23.08-.71,1.28-1.76,2.39-2.53,2.39-.39,0-.68-.3-.68-.76,0-1.17,1.41-1.67,2.96-2.14.36-.68.6-1.4.6-1.97,0-.32-.09-.44-.31-.44-1.25,0-4.22,3.74-6.62,9.67-.03.09-.11.15-.19.15-.12,0-.22-.13-.22-.28h-.03s0-.06.02-.1c.23-.72,1.72-4.24,2.72-6.6.29-.69.54-1.28.71-1.67.03-.09.11-.15.19-.15.12,0,.22.13.22.28,0,.05,0,.1-.02.14-.17.39-.42.97-.71,1.67-.27.67-.36.89-.34.89.01,0,.08-.11.17-.26,1.65-2.75,3.14-4.3,4.09-4.3M75.16,28.95c-1.59.53-2.1.91-2.1,1.43,0,.12.07.19.25.19.52,0,1.26-.71,1.85-1.62M75.9,24.76c-.88,0-1.86.86-2.77,1.99-.12-.25-.36-.41-.64-.41-.3,0-.57.2-.66.49-.15.35-.41.94-.7,1.63-1.25,2.95-2.49,5.88-2.73,6.62-.04.11-.05.22-.05.28v.69l.3-.1c.12.11.28.17.45.17.3,0,.57-.2.66-.49.8-1.97,1.63-3.63,2.42-4.99.11.58.56.97,1.15.97,1.06,0,2.18-1.3,2.87-2.48,0,0,0,0,0,0,1.48-.43,3.14-.91,4.16-1.93.16-.16.24-.35.24-.58,0-.43-.32-.78-.72-.78-.18,0-.36.07-.48.2-.56.56-1.5.94-2.42,1.24.09-.37.14-.71.14-1.02,0-1.04-.62-1.5-1.24-1.5h0ZM73.66,28.41c.88-1.19,1.62-1.88,2.06-2.05-.02.4-.18.91-.45,1.45-.52.16-1.1.35-1.61.6h0Z"/>
      </g>
      <g>
        <path class="st0" d="M79.66,30.98c-.57,0-1.25-.22-1.38-1.21h-.03s-.02-.38-.02-.38c0-1.66,1.48-4.02,2.86-4.02.6,0,1.01.45,1.01,1.12,0,.61-.87,2.02-2.56,2.02-.07,0-.14,0-.21,0-.1.31-.16.62-.16.87,0,.47.11.54.48.54,1.02,0,3.43-1.59,4.78-3.15.07-.09.2-.16.33-.16.26,0,.47.24.47.53,0,.13-.04.25-.11.36-1.56,1.7-4.1,3.48-5.46,3.48ZM81.09,26.44c-.35,0-.84.41-1.24,1.01.47-.05.77-.25.96-.41.27-.24.35-.48.35-.54l-.07-.06Z"/>
        <path class="st2" d="M81.09,25.62c.46,0,.76.33.76.87,0,.5-.78,1.77-2.31,1.77-.12,0-.25,0-.38-.02-.15.39-.24.79-.24,1.14,0,.57.19.79.73.79,1.1,0,3.59-1.64,4.97-3.24.03-.04.08-.07.14-.07.12,0,.22.13.22.28,0,.09-.03.16-.07.22-1.57,1.71-4.04,3.37-5.25,3.37-.77,0-1.16-.44-1.16-1.35h-.02c0-1.64,1.45-3.76,2.61-3.76M79.58,27.72c1.27,0,1.83-.89,1.83-1.22,0-.22-.09-.31-.32-.31-.56,0-1.24.68-1.69,1.52.06,0,.12,0,.18,0M81.09,25.12c-1.54,0-3.11,2.48-3.11,4.27v.81l.12-.06c.21.7.76,1.09,1.56,1.09,1.47,0,4.06-1.83,5.62-3.53l.03-.03.02-.03c.1-.15.15-.32.15-.5,0-.43-.32-.78-.72-.78-.21,0-.41.1-.54.27-1.34,1.55-3.72,3.04-4.57,3.04-.14,0-.19-.02-.21-.03,0,0-.02-.07-.02-.26,0-.18.03-.39.09-.62,0,0,.02,0,.02,0,1.82,0,2.81-1.5,2.81-2.27s-.52-1.37-1.26-1.37h0Z"/>
      </g>
      <g>
        <path class="st0" d="M82.98,30.04c0-1.88,2.28-4.78,3.75-4.78.41,0,.79.23,1.04.61.01-.02.17-.27.23-.37.08-.14.23-.22.38-.22.26,0,.47.24.47.53,0,.15-.05.25-.1.32-.63,1.03-1.27,2.53-1.27,3.25,0,.53.15.53.36.53.84,0,2.54-1.13,4.03-3.23.1-.12.22-.19.35-.19.26,0,.47.24.47.53,0,.13-.04.25-.11.36-1.76,2.29-3.48,3.59-4.73,3.59-.82,0-1.29-.58-1.29-1.59,0-.13.01-.27.03-.4-1.27,1.52-2.05,2.12-2.7,2.12-.18,0-.51-.05-.72-.35l-.18.38v-1.09ZM86.73,26.31c-.87,0-2.82,2.37-2.82,3.72h0c.56-.09,1.63-1.19,3.24-3.26-.06-.28-.22-.46-.42-.46Z"/>
        <path class="st2" d="M86.73,25.51c.46,0,.85.36,1.02.88.15-.27.32-.51.47-.76.03-.05.09-.1.16-.1.12,0,.22.13.22.28,0,.08-.03.14-.06.19-.63,1.04-1.31,2.59-1.31,3.38,0,.56.17.78.61.78.9,0,2.67-1.14,4.23-3.34.04-.05.09-.08.15-.08.12,0,.22.13.22.28,0,.09-.03.16-.07.22-1.88,2.44-3.49,3.48-4.52,3.48-.67,0-1.04-.46-1.04-1.34,0-.29.07-.66.09-.79.03-.14,0-.2-.04-.2-.04,0-.09.04-.14.1-1.4,1.66-2.23,2.36-2.83,2.36-.42,0-.65-.28-.65-.83v.02c-.01-1.71,2.17-4.53,3.49-4.53M83.88,30.3c.58,0,1.68-1.07,3.54-3.47h-.01c-.05-.44-.32-.77-.68-.77-1.09,0-3.07,2.57-3.07,3.97,0,.23.03.27.22.27M86.73,25.01c-1.73,0-4,3.16-4,5.03v2.12l.5-1c.2.14.43.2.66.2.64,0,1.34-.46,2.44-1.65.1.96.65,1.52,1.52,1.52,1.34,0,3.09-1.31,4.92-3.67.12-.18.17-.35.17-.53,0-.43-.32-.78-.72-.78-.21,0-.4.1-.54.27-1.55,2.18-3.17,3.15-3.84,3.15-.05,0-.08,0-.09,0,0-.01-.02-.09-.02-.27,0-.59.56-1.99,1.24-3.12.06-.1.13-.24.13-.45,0-.43-.32-.78-.72-.78-.24,0-.46.13-.59.34-.01.02-.03.05-.04.07-.28-.28-.64-.43-1.02-.43h0ZM84.21,29.64c.3-1.24,1.85-3.08,2.52-3.08.05,0,.1.06.14.16-1.49,1.91-2.27,2.64-2.66,2.92h0Z"/>
      </g>
      <g>
        <path class="st0" d="M89.46,34.35c-.16,0-.29-.07-.38-.18-.14-.2-.15-.51-.01-.94l.18-.57.02.03c.87-2.47,2.56-6.04,3.93-8.66-1.08.21-2.17.46-3.06.72h-.03s-.09.02-.09.02c-.26,0-.47-.24-.47-.53,0-.26.15-.47.37-.52,1.2-.35,2.62-.67,3.92-.88.16-.25.32-.52.48-.78.43-.72.84-1.4,1.17-1.74.04-.04.16-.16.33-.16.26,0,.47.24.47.53,0,.13-.04.25-.12.35-.26.34-.66.94-1.04,1.53l-.05.07c.79-.09,1.53-.14,2.19-.14.48,0,.92.02,1.32.07.24.02.42.24.42.53s-.21.53-.47.53c-.43-.05-.84-.07-1.29-.07-.83,0-1.79.08-2.86.23-1.37,2.55-3.23,6.4-4.2,9.06.08.12.11.29.04.51-.21.64-.47.97-.77.97Z"/>
        <path class="st2" d="M95.82,20.42c.12,0,.22.13.22.28,0,.08-.03.15-.07.2-.35.45-.91,1.33-1.4,2.07.92-.12,1.84-.2,2.69-.2.46,0,.89.02,1.3.07.12.01.2.13.2.28s-.1.28-.22.28h-.03c-.39-.05-.81-.07-1.25-.07-.95,0-1.99.1-3.03.25-1.52,2.82-3.4,6.76-4.33,9.36.12.05.15.18.09.36-.13.4-.33.8-.53.8-.29,0-.28-.39-.15-.8v.02c.81-2.48,2.73-6.59,4.35-9.63-1.34.24-2.62.54-3.59.82-.02.01-.03.01-.05.01-.12,0-.22-.13-.22-.28,0-.14.07-.25.17-.27,1.06-.31,2.52-.66,4.02-.9.61-.96,1.24-2.12,1.68-2.57.04-.04.09-.08.15-.08M95.82,19.92c-.18,0-.35.08-.5.23-.35.36-.77,1.05-1.21,1.78-.14.23-.28.46-.42.69-1.28.22-2.67.53-3.86.88-.29.06-.53.37-.53.75,0,.43.32.78.72.78.06,0,.13,0,.22-.04.73-.21,1.61-.42,2.5-.61-1.22,2.37-2.64,5.38-3.5,7.66l-.02-.05-.38,1.15c-.16.51-.15.9.05,1.16.13.18.34.29.58.29.43,0,.76-.37,1.01-1.15.08-.24.07-.44,0-.61.96-2.6,2.74-6.3,4.09-8.81,1.01-.14,1.92-.21,2.7-.21.44,0,.84.02,1.19.07h.03s.03,0,.03,0c.43,0,.75-.35.75-.78s-.28-.75-.66-.78c-.39-.05-.85-.07-1.34-.07-.52,0-1.09.03-1.69.08.3-.45.59-.88.79-1.15.11-.14.18-.32.18-.51,0-.43-.32-.78-.72-.78h0Z"/>
      </g>
      <g>
        <path class="st0" d="M95.51,31.12c-.14,0-.26-.06-.36-.16-.12-.13-.17-.32-.14-.53.05-.35.33-.63.63-.63.14,0,.27.06.36.16.12.13.17.32.14.53-.04.35-.33.63-.63.63Z"/>
        <path class="st2" d="M95.64,30.05c.17,0,.28.18.25.41s-.21.41-.38.41-.28-.18-.25-.41c.03-.23.21-.41.38-.41M95.64,29.55c-.43,0-.81.37-.88.85-.04.28.04.54.2.73.14.16.34.25.55.25.43,0,.81-.37.88-.85.04-.28-.04-.54-.2-.73-.14-.16-.34-.25-.55-.25h0Z"/>
      </g>
    </g>
    <g>
      <g>
        <path class="st0" d="M3.58,30.98c-.57,0-1.25-.22-1.39-1.21h-.02s-.02-.38-.02-.38c0-1.8,1.58-4.02,2.86-4.02.61,0,1.01.44,1.01,1.12,0,.61-.87,2.02-2.56,2.02-.07,0-.14,0-.21,0-.1.32-.16.61-.16.87,0,.47.11.54.48.54,1.02,0,3.43-1.59,4.78-3.15.07-.09.2-.16.33-.16.26,0,.47.24.47.53,0,.15-.04.28-.13.38-1.54,1.68-4.09,3.46-5.44,3.46ZM5.02,26.44c-.35,0-.84.41-1.24,1.01.47-.05.77-.25.96-.41.27-.24.35-.48.35-.54l-.07-.06Z"/>
        <path class="st2" d="M5.01,25.62c.47,0,.76.33.76.87,0,.5-.78,1.77-2.31,1.77-.12,0-.25,0-.38-.02-.15.39-.24.79-.24,1.14,0,.57.19.79.73.79,1.1,0,3.59-1.64,4.97-3.24.03-.04.08-.07.14-.07.12,0,.22.13.22.28,0,.09-.02.16-.07.22-1.57,1.71-4.04,3.37-5.25,3.37-.77,0-1.16-.44-1.16-1.35h-.02c0-1.64,1.45-3.76,2.61-3.76M3.51,27.72c1.27,0,1.83-.89,1.83-1.22,0-.22-.09-.31-.32-.31-.56,0-1.24.68-1.69,1.52.06,0,.12,0,.18,0M5.01,25.12c-1.54,0-3.11,2.48-3.11,4.27v.81l.12-.06c.21.7.76,1.09,1.56,1.09,1.47,0,4.06-1.83,5.62-3.53.14-.17.2-.35.2-.56,0-.43-.32-.78-.72-.78-.21,0-.41.1-.54.27-1.34,1.55-3.72,3.04-4.57,3.04-.14,0-.19-.02-.21-.03,0,0-.02-.07-.02-.26,0-.18.03-.39.09-.62,0,0,.02,0,.02,0,1.82,0,2.81-1.5,2.81-2.27,0-.82-.51-1.37-1.26-1.37h0Z"/>
      </g>
      <g>
        <path class="st0" d="M7.81,31.1c-.18,0-.52-.05-.73-.37l-.17.35v-1.04c-.01-1.88,2.27-4.78,3.74-4.78.41,0,.79.23,1.05.61.02-.02.17-.26.23-.36.06-.11.2-.22.37-.22.26,0,.47.24.47.53,0,.13-.04.25-.12.35-.61,1.01-1.25,2.51-1.25,3.22,0,.53.15.53.36.53.84,0,2.54-1.13,4.03-3.23.1-.12.22-.19.35-.19.26,0,.47.24.47.53,0,.13-.04.25-.11.36-1.76,2.29-3.48,3.59-4.73,3.59-.82,0-1.29-.58-1.29-1.59,0-.13.01-.27.03-.4-1.27,1.52-2.06,2.12-2.7,2.12ZM10.66,26.31c-.87,0-2.82,2.37-2.82,3.72h0c.56-.09,1.63-1.19,3.24-3.26-.06-.28-.22-.46-.42-.46Z"/>
        <path class="st2" d="M10.65,25.51c.46,0,.86.36,1.02.88.15-.27.32-.51.47-.76.03-.05.09-.1.16-.1.12,0,.22.13.22.28,0,.08-.02.14-.06.19-.63,1.04-1.31,2.59-1.31,3.38,0,.56.17.78.61.78.9,0,2.67-1.14,4.23-3.34.04-.05.09-.08.15-.08.12,0,.22.13.22.28,0,.09-.03.16-.07.22-1.88,2.44-3.49,3.48-4.52,3.48-.67,0-1.04-.46-1.04-1.34,0-.29.07-.66.09-.79.03-.14,0-.2-.04-.2-.04,0-.09.04-.14.1-1.4,1.66-2.23,2.36-2.83,2.36-.42,0-.65-.28-.65-.83v.02c-.01-1.71,2.17-4.53,3.49-4.53M7.81,30.3c.58,0,1.68-1.07,3.54-3.47h-.01c-.05-.44-.32-.77-.68-.77-1.09,0-3.07,2.57-3.07,3.97,0,.23.03.27.22.27M10.65,25.01c-1.73,0-4,3.16-4,5.03v2.12l.5-1c.2.14.43.19.66.19.64,0,1.34-.46,2.44-1.65.1.96.65,1.52,1.52,1.52,1.34,0,3.09-1.31,4.92-3.67.12-.18.17-.35.17-.53,0-.43-.32-.78-.72-.78-.21,0-.4.1-.54.27-1.55,2.18-3.17,3.15-3.84,3.15-.05,0-.08,0-.09,0,0-.01-.02-.09-.02-.27,0-.59.55-1.98,1.23-3.1.1-.13.14-.29.14-.47,0-.43-.32-.78-.72-.78-.24,0-.46.13-.59.34-.01.02-.03.05-.04.07-.28-.27-.64-.43-1.02-.43h0ZM8.14,29.64c.3-1.24,1.85-3.08,2.52-3.08.05,0,.1.06.14.16-1.49,1.91-2.27,2.64-2.66,2.92h0Z"/>
      </g>
      <g>
        <path class="st0" d="M13.4,34.35c-.16,0-.29-.07-.38-.18-.14-.2-.15-.51-.01-.94l.49-1.54v.19c.92-2.4,2.4-5.5,3.63-7.85-1.08.21-2.17.46-3.06.72h-.03s-.08.02-.08.02c-.26,0-.47-.24-.47-.53,0-.26.15-.47.37-.52,1.19-.35,2.62-.67,3.92-.88.16-.25.32-.52.48-.78.43-.72.84-1.4,1.17-1.73.04-.04.16-.16.33-.16.26,0,.47.24.47.53,0,.19-.08.31-.14.38-.24.31-.63.9-1,1.48l-.07.1c.79-.09,1.53-.14,2.19-.14.48,0,.93.02,1.32.07.24.02.42.24.42.53s-.21.53-.47.53c-.42-.05-.83-.07-1.28-.07-.83,0-1.79.08-2.86.23-1.37,2.55-3.23,6.4-4.2,9.06.08.12.11.29.04.51-.21.64-.47.97-.77.97Z"/>
        <path class="st2" d="M19.75,20.42c.12,0,.22.13.22.28,0,.08-.02.15-.07.2-.35.45-.91,1.33-1.4,2.07.92-.12,1.84-.2,2.69-.2.46,0,.89.02,1.3.07.12.01.2.13.2.28s-.1.28-.22.28h-.02c-.39-.05-.81-.07-1.25-.07-.95,0-1.99.1-3.03.25-1.52,2.82-3.4,6.76-4.33,9.36.12.05.15.18.09.36-.13.4-.33.8-.53.8-.29,0-.28-.39-.15-.8v.02c.8-2.48,2.72-6.59,4.34-9.63-1.34.24-2.62.54-3.59.82-.02.01-.03.01-.05.01-.12,0-.22-.13-.22-.28,0-.14.07-.25.17-.27,1.06-.31,2.52-.66,4.02-.9.61-.96,1.24-2.12,1.68-2.57.04-.04.09-.08.15-.08M19.75,19.92c-.18,0-.35.08-.5.23-.35.36-.77,1.05-1.21,1.78-.14.23-.28.46-.42.69-1.28.22-2.67.53-3.86.88-.29.06-.53.37-.53.75,0,.43.32.78.72.78.06,0,.13,0,.22-.04.73-.21,1.61-.42,2.5-.61-.98,1.89-2.07,4.19-2.92,6.21v-.49l-.98,3.06c-.16.51-.15.9.05,1.16.13.18.34.29.58.29.43,0,.76-.37,1.01-1.15.08-.24.07-.44,0-.61.96-2.6,2.74-6.3,4.09-8.81,1.01-.14,1.92-.21,2.7-.21.44,0,.84.02,1.19.07h.03s.03,0,.03,0c.42,0,.74-.35.74-.78s-.28-.75-.66-.78c-.39-.05-.85-.07-1.34-.07-.52,0-1.09.03-1.69.08.29-.45.58-.87.78-1.13.09-.1.19-.27.19-.52,0-.43-.32-.78-.72-.78h0Z"/>
      </g>
      <g>
        <path class="st0" d="M19.44,31.12c-.14,0-.27-.06-.36-.16-.12-.13-.17-.32-.14-.53.05-.35.33-.63.63-.63.14,0,.27.06.36.16.12.13.17.32.14.53-.04.35-.33.63-.63.63Z"/>
        <path class="st2" d="M19.57,30.05c.17,0,.28.18.25.41-.03.23-.21.41-.38.41s-.28-.18-.25-.41c.03-.23.21-.41.38-.41M19.57,29.55c-.43,0-.81.37-.88.85-.04.28.04.54.2.73.14.16.34.25.55.25.43,0,.81-.37.88-.85.04-.28-.04-.54-.2-.73-.14-.16-.34-.25-.55-.25h0Z"/>
      </g>
      <g>
        <path class="st0" d="M23.32,31.25c-.51,0-.83-.36-.87-.97v-.12c-.01-1.88,2.26-4.78,3.74-4.78.28,0,.52.1.7.29.76-2.31,2.31-5.91,3.77-5.91.51,0,.84.4.84,1.01,0,1.4-2.53,4.96-4.25,7.05-.14.61-.22,1.13-.22,1.53,0,.7.23.7.36.7.47,0,1.61-.42,4.04-3.25.07-.1.2-.17.33-.17.26,0,.47.24.47.53,0,.16-.05.29-.14.39-2.05,2.39-3.59,3.56-4.7,3.56-.81,0-1.29-.66-1.29-1.76,0-.07,0-.15,0-.22-1.31,1.41-2.24,2.12-2.79,2.12ZM26.2,26.44c-.87,0-2.82,2.37-2.82,3.72h0c.43-.13,1.47-1.04,3-2.87-.03-.08-.05-.19-.04-.33.01-.37-.06-.47-.08-.5l-.06-.02ZM30.57,20.83c-.64.17-1.7,2.02-2.55,4.35,1.47-1.99,2.48-3.71,2.55-4.35Z"/>
        <path class="st2" d="M30.66,20.01c.37,0,.59.28.59.76,0,1.16-2.13,4.4-4.23,6.93-.16.66-.24,1.23-.24,1.65,0,.65.19.95.61.95.9,0,2.34-1.14,4.23-3.34.03-.04.08-.08.14-.08.12,0,.22.13.22.28,0,.09-.02.16-.07.21-1.98,2.31-3.49,3.49-4.52,3.49-.66,0-1.04-.55-1.04-1.51,0-.27.03-.6.1-.98-1.33,1.51-2.56,2.63-3.13,2.63-.4,0-.62-.29-.62-.83h-.01c0-1.73,2.18-4.54,3.5-4.54.38,0,.64.24.76.67.86-2.86,2.48-6.29,3.71-6.29M27.32,26.52c1.8-2.29,3.5-4.89,3.5-5.75h0c0-.12-.03-.2-.16-.2-1.04,0-2.54,3.25-3.34,5.95M23.32,30.43c.54,0,1.92-1.37,3.35-3.1h0s0-.04.02-.06c-.07-.01-.1-.12-.09-.3.02-.53-.11-.78-.39-.78-1.09,0-3.07,2.57-3.07,3.97,0,.23.03.27.19.27M30.66,19.51c-1.7,0-3.27,3.94-3.9,5.75-.17-.09-.36-.13-.57-.13-1.73,0-4,3.16-4,5.03v.21l.02.02c.08.82.61,1.11,1.11,1.11.22,0,.83,0,2.55-1.76.13,1.19.84,1.62,1.52,1.62,1.2,0,2.76-1.16,4.9-3.66.12-.12.19-.31.19-.54,0-.43-.32-.78-.72-.78-.21,0-.41.1-.54.28-2.43,2.83-3.49,3.14-3.83,3.14-.03,0-.05,0-.05,0,0,0-.06-.1-.06-.45,0-.36.07-.86.2-1.42,1.52-1.85,4.27-5.59,4.27-7.16,0-.87-.55-1.26-1.09-1.26h0ZM29.2,23.04c.27-.55.54-1,.77-1.33-.19.37-.45.82-.77,1.33h0ZM23.7,29.7c.32-1.17,1.68-2.81,2.38-2.99,0,.05.01.13,0,.25,0,.11,0,.2.01.28-1.13,1.34-1.93,2.12-2.4,2.47h0Z"/>
      </g>
      <g>
        <path class="st0" d="M30.69,30.72c-.05,0-.1,0-.16-.03h-.06l-.09-.08c-.18-.12-.27-.37-.19-.63.4-1.43,1.51-3.88,2-4.65.08-.14.22-.23.38-.23.26,0,.47.24.47.53,0,.12-.04.23-.1.32-.14.24-.36.65-.6,1.18.83-.93,1.78-1.76,2.35-1.76.73,0,.8.87.84,1.45.04.62.1.79.14.82,0,0,.01,0,.02,0,.35,0,.88-.16,1.69-.86.07-.07.17-.11.28-.11.26,0,.47.24.47.53,0,.16-.06.3-.17.42-.82.73-1.59,1.1-2.24,1.1-1,0-1.08-1.17-1.12-1.8,0-.08-.02-.29-.04-.44-.61.29-2.51,2.13-3.47,3.95-.11.24-.3.28-.4.28Z"/>
        <path class="st2" d="M32.57,25.36c.12,0,.22.13.22.28,0,.07-.02.13-.05.17-.23.38-.62,1.17-1.05,2.14-.11.25-.13.38-.08.38.04,0,.12-.07.24-.23,1.11-1.4,2.3-2.47,2.84-2.47.42,0,.53.42.59,1.22.06.84.14,1.06.44,1.06.71,0,1.49-.64,1.82-.93.03-.03.07-.05.12-.05.12,0,.22.13.22.28,0,.1-.04.18-.1.24-.33.29-1.22,1.03-2.06,1.03-.76,0-.83-.95-.87-1.57-.04-.6-.07-.71-.16-.71-.58,0-2.82,2.22-3.82,4.12-.05.1-.11.15-.18.15-.03,0-.07,0-.11-.03h-.03c-.12-.09-.17-.22-.12-.38.39-1.39,1.48-3.81,1.97-4.59.04-.07.1-.11.17-.11M32.57,24.86c-.25,0-.47.14-.6.36-.48.76-1.61,3.24-2.02,4.7-.1.33,0,.68.28.89l.12.12h.13c.07.03.14.04.21.04.13,0,.45-.04.64-.44.77-1.46,2.26-3.02,3.03-3.61,0,0,0,.01,0,.02.04.61.13,2.04,1.37,2.04.71,0,1.52-.39,2.39-1.15.18-.18.27-.39.27-.62,0-.43-.32-.78-.72-.78-.18,0-.35.07-.47.2-.65.57-1.09.74-1.34.77-.02-.1-.04-.28-.06-.59-.04-.59-.13-1.68-1.09-1.68-.41,0-.93.32-1.43.74.02-.07.03-.15.03-.23,0-.43-.32-.78-.72-.78h0Z"/>
      </g>
      <g>
        <path class="st0" d="M37.84,31.1c-.75,0-1.21-.48-1.28-1.34h-.01v-.25c0-1.11.86-3.03,1.45-3.98.06-.13.22-.23.38-.23.26,0,.47.24.47.53,0,.12-.04.23-.1.32-.67,1.1-1.27,2.68-1.27,3.36,0,.53.15.53.36.53.47,0,1.61-.42,4.04-3.25.08-.1.2-.17.33-.17.26,0,.47.24.47.53,0,.14-.04.26-.12.37-2.07,2.41-3.61,3.58-4.72,3.58ZM39.2,24.71c-.26,0-.47-.24-.47-.53,0-.12.04-.23.1-.32.02-.03.06-.1.1-.17.07-.1.14-.22.19-.32.06-.14.22-.25.39-.25.26,0,.47.24.47.53,0,.1-.03.22-.09.31l-.32.53c-.08.13-.23.22-.38.22Z"/>
        <path class="st2" d="M39.52,23.37c.12,0,.22.13.22.28,0,.06-.02.13-.05.18-.1.16-.23.38-.32.52-.04.07-.11.11-.17.11-.12,0-.22-.13-.22-.28,0-.07.02-.13.05-.17.08-.14.23-.35.32-.53.03-.07.1-.11.17-.11M38.38,25.55c.12,0,.22.13.22.28,0,.07-.02.13-.05.17-.71,1.16-1.32,2.77-1.32,3.51,0,.56.17.78.61.78.9,0,2.34-1.14,4.23-3.34.03-.04.08-.08.14-.08.12,0,.22.13.22.28,0,.09-.03.16-.07.21-1.98,2.31-3.49,3.49-4.52,3.49-.67,0-1.04-.46-1.04-1.34h0c0-1.08.88-2.98,1.42-3.85.03-.06.1-.11.17-.11M39.52,22.87c-.27,0-.52.16-.63.41-.04.07-.11.18-.17.27-.04.07-.08.13-.12.19-.08.12-.13.28-.13.44,0,.43.32.78.72.78.25,0,.48-.14.6-.36.04-.06.11-.17.17-.28l.14-.22c.08-.14.13-.3.13-.44,0-.43-.32-.78-.72-.78h0ZM38.38,25.05c-.26,0-.5.15-.62.39-.47.75-1.47,2.79-1.47,4.07v.5h.05c.15.85.68,1.34,1.5,1.34,1.2,0,2.76-1.16,4.9-3.66.13-.16.19-.34.19-.54,0-.43-.32-.78-.72-.78-.21,0-.41.1-.54.28-2.43,2.83-3.49,3.14-3.83,3.14-.05,0-.08,0-.09,0,0-.01-.02-.09-.02-.27,0-.57.53-2.08,1.25-3.25.07-.09.12-.26.12-.43,0-.43-.32-.78-.72-.78h0Z"/>
      </g>
      <g>
        <path class="st0" d="M40.87,31.26c-.33,0-.56-.28-.56-.68,0-.78,1.03-2.77,1.6-3.83l-.46.45,1.3-1.96c.16-.23.36-.36.58-.36.26,0,.47.21.47.49,0,.38-.35.84-.73,1.33l-.1.13c-.38.68-.72,1.33-1,1.9,1.95-2.51,2.87-3.36,3.64-3.36.35,0,.75.25.75.96,0,.48-.19,1.21-.37,1.86-.19.69-.36,1.34-.36,1.73,0,.03,0,.05,0,.07.93-.1,2.61-2.04,3.62-3.21.07-.1.2-.17.33-.17.26,0,.47.24.47.53,0,.16-.05.29-.14.38-1.52,1.78-3.11,3.52-4.32,3.52-.43,0-.88-.3-.88-1.14,0-.53.17-1.17.34-1.79l.14-.55c.12-.45.23-.88.26-1.17-.63.25-2.31,2.42-2.88,3.17-.93,1.19-1.31,1.68-1.69,1.68Z"/>
        <path class="st2" d="M43.32,25.14c.11,0,.22.09.22.24,0,.33-.42.84-.78,1.31-.61,1.09-1.11,2.08-1.43,2.83-.09.22-.11.38-.04.38.04,0,.12-.06.24-.2.15-.18.32-.4.51-.65,1.89-2.45,2.86-3.42,3.56-3.42.32,0,.5.27.5.71s-.18,1.14-.36,1.79c-.19.69-.37,1.37-.37,1.8,0,.26.05.32.2.32.95,0,2.45-1.67,3.86-3.3.03-.04.08-.08.14-.08.12,0,.22.13.22.28,0,.09-.02.16-.07.21-1.41,1.65-3.03,3.45-4.14,3.45-.4,0-.63-.32-.63-.89s.22-1.31.4-2c.17-.65.34-1.23.34-1.6,0-.16-.07-.18-.16-.18-.46,0-1.38.97-3.17,3.29-.78,1-1.23,1.58-1.49,1.58-.19,0-.31-.18-.31-.43,0-.58.73-2.22,1.82-4.16.24-.45.42-.79.59-1.05l-.02.02c.1-.15.23-.25.37-.25M43.32,24.64c-.3,0-.58.17-.79.47h0c-.17.27-.35.6-.57,1.02l-.03.05c-.56,1-1.88,3.45-1.88,4.4,0,.54.34.93.81.93.5,0,.87-.48,1.86-1.75,1.21-1.57,1.92-2.38,2.34-2.78-.04.17-.09.35-.14.54l-.07.27-.07.27c-.17.64-.34,1.29-.34,1.85,0,1.03.61,1.39,1.13,1.39,1.31,0,2.89-1.71,4.52-3.63.12-.11.19-.3.19-.53,0-.43-.32-.78-.72-.78-.21,0-.41.1-.54.28-.81.94-2.27,2.62-3.14,3.02.06-.41.22-.99.33-1.4.23-.82.38-1.46.38-1.92,0-.84-.5-1.21-1-1.21-.54,0-1.11.33-1.95,1.21.23-.33.39-.65.39-.96,0-.41-.32-.74-.72-.74h0Z"/>
      </g>
      <g>
        <path class="st0" d="M47.47,32.78c-.26,0-.47-.24-.47-.53,0-.04,0-.13.04-.2.48-1.67,3.3-8.05,5.28-11.14.02-.04.05-.08.07-.11l-.17.08.75-.9c.16-.19.34-.29.52-.29.27,0,.5.24.5.53,0,.39-.38.77-.81,1.22l-.16.16c-1.08,1.66-2.54,4.66-3.61,7.06,1.02-1.25,2.59-2.94,3.54-2.94.49,0,.85.4.85.95,0,1.16-1.38,2.38-3.26,2.91.22.36.55.59.77.59.98,0,3.03-1.49,4.67-3.38.08-.1.2-.17.33-.17.26,0,.47.24.47.53,0,.16-.05.29-.14.39-1.26,1.48-3.73,3.69-5.32,3.69-.63,0-1.31-.55-1.67-1.29-.67.86-1.29,1.77-1.78,2.61-.09.15-.23.24-.39.24h-.02ZM52.83,26.79c-.29.1-.91.54-1.81,1.49.99-.43,1.69-1.04,1.81-1.49Z"/>
        <path class="st2" d="M53.49,19.94c.13,0,.25.13.25.28,0,.33-.46.75-.9,1.2-1.23,1.87-2.92,5.41-4.04,8.01-.12.27-.16.44-.09.44.04,0,.14-.08.28-.28,1.4-1.83,3.11-3.63,3.96-3.63.35,0,.6.28.6.7,0,1.12-1.49,2.3-3.37,2.75.22.55.71,1,1.13,1,1.07,0,3.16-1.5,4.86-3.47.03-.04.08-.08.14-.08.12,0,.22.13.22.28,0,.09-.02.16-.07.21-1.42,1.66-3.75,3.62-5.14,3.62-.64,0-1.36-.71-1.59-1.54-.76.94-1.5,2-2.07,2.98-.04.07-.1.12-.17.12h-.02c-.12,0-.22-.13-.22-.28,0-.03,0-.08.02-.1.43-1.54,3.28-8.01,5.26-11.11.24-.38.46-.67.65-.91h-.02c.11-.12.22-.19.33-.19M50.19,28.84c1.58-.42,2.91-1.43,2.91-2.18h.01c0-.09-.03-.14-.17-.14-.49,0-1.6.98-2.75,2.32M53.49,19.44c-.26,0-.5.13-.71.38l-1.57,1.86.5-.25c-1.94,3.26-4.43,8.93-4.9,10.53-.06.12-.06.24-.06.29,0,.43.32.78.72.78.27,0,.49-.14.62-.37.43-.73.95-1.52,1.53-2.28.42.65,1.07,1.09,1.7,1.09,1.8,0,4.4-2.48,5.52-3.79.12-.12.19-.3.19-.54,0-.43-.32-.78-.72-.78-.21,0-.41.1-.54.28-1.74,2.01-3.67,3.27-4.46,3.27-.08,0-.21-.07-.35-.21,1.82-.62,3.09-1.83,3.09-3.04,0-.7-.46-1.2-1.1-1.2-.72,0-1.7.8-2.61,1.76.94-2.01,2.02-4.15,2.89-5.48l.12-.12c.48-.48.89-.9.89-1.39,0-.42-.34-.78-.75-.78h0Z"/>
      </g>
      <g>
        <path class="st0" d="M56.35,31.12c-.14,0-.27-.06-.36-.16-.12-.13-.17-.32-.14-.53.04-.35.33-.63.63-.63.14,0,.27.06.36.16.12.13.17.32.14.53-.04.35-.33.63-.63.63Z"/>
        <path class="st2" d="M56.48,30.05c.17,0,.28.18.25.41-.03.23-.21.41-.38.41s-.28-.18-.25-.41c.03-.23.21-.41.38-.41M56.48,29.55c-.43,0-.81.37-.88.85-.04.28.04.54.2.73.14.16.34.25.55.25.43,0,.81-.37.88-.85.04-.28-.04-.54-.2-.73-.14-.16-.34-.25-.55-.25h0Z"/>
      </g>
      <g>
        <path class="st0" d="M60.14,30.72c-.05,0-.1,0-.16-.03h-.06l-.09-.08c-.18-.12-.26-.37-.18-.62.4-1.44,1.51-3.88,2-4.65.08-.14.22-.23.38-.23.26,0,.47.24.47.53,0,.12-.04.23-.1.32-.14.23-.36.66-.6,1.18.83-.93,1.78-1.76,2.35-1.76.73,0,.8.87.84,1.45.04.62.1.79.14.82,0,0,.01,0,.02,0,.35,0,.88-.16,1.69-.86.07-.07.17-.11.28-.11.26,0,.47.24.47.53,0,.16-.06.3-.17.42-.83.73-1.6,1.1-2.24,1.1-1,0-1.08-1.17-1.12-1.8,0-.08-.02-.29-.04-.44-.61.29-2.51,2.13-3.47,3.95-.11.24-.3.28-.4.28Z"/>
        <path class="st2" d="M62.02,25.36c.12,0,.22.13.22.28,0,.07-.02.13-.05.17-.23.38-.62,1.17-1.05,2.14-.11.25-.13.38-.08.38.04,0,.12-.07.24-.23,1.11-1.4,2.3-2.47,2.84-2.47.42,0,.53.42.59,1.22.06.84.14,1.06.44,1.06.71,0,1.49-.64,1.82-.93.03-.03.07-.05.12-.05.12,0,.22.13.22.28,0,.1-.04.18-.1.24-.33.29-1.22,1.03-2.06,1.03-.76,0-.83-.95-.87-1.57-.04-.6-.07-.71-.16-.71-.58,0-2.82,2.22-3.82,4.12-.05.1-.11.15-.18.15-.03,0-.07,0-.11-.03h-.03c-.12-.09-.17-.22-.12-.38.39-1.39,1.48-3.81,1.97-4.59.04-.07.1-.11.17-.11M62.02,24.86c-.25,0-.47.14-.6.36-.48.76-1.61,3.24-2.02,4.7-.1.33,0,.68.28.89l.12.12h.13c.07.03.14.04.21.04.13,0,.45-.04.64-.44.77-1.46,2.26-3.02,3.03-3.61,0,0,0,.01,0,.02.04.61.13,2.04,1.37,2.04.71,0,1.52-.39,2.39-1.15.18-.18.27-.39.27-.62,0-.43-.32-.78-.72-.78-.18,0-.35.07-.47.2-.65.57-1.09.74-1.34.77-.02-.1-.04-.28-.06-.59-.04-.59-.13-1.68-1.09-1.68-.41,0-.93.32-1.43.74.02-.07.03-.15.03-.23,0-.43-.32-.78-.72-.78h0Z"/>
      </g>
      <g>
        <path class="st0" d="M67.3,30.98c-.57,0-1.25-.22-1.38-1.21h-.02s-.02-.38-.02-.38c0-1.66,1.48-4.02,2.86-4.02.6,0,1.01.45,1.01,1.12,0,.61-.87,2.02-2.57,2.02-.07,0-.14,0-.21,0-.1.31-.16.62-.16.87,0,.47.11.54.48.54,1.02,0,3.43-1.59,4.78-3.15.07-.09.2-.16.33-.16.26,0,.47.24.47.53,0,.13-.04.25-.11.36-1.55,1.7-4.1,3.48-5.46,3.48ZM68.73,26.44c-.35,0-.84.41-1.24,1.01.47-.05.77-.25.96-.41.27-.24.35-.48.35-.54l-.07-.06Z"/>
        <path class="st2" d="M68.73,25.62c.46,0,.76.33.76.87,0,.5-.78,1.77-2.31,1.77-.12,0-.25,0-.38-.02-.15.39-.24.79-.24,1.14,0,.57.19.79.73.79,1.1,0,3.59-1.64,4.97-3.24.03-.04.08-.07.14-.07.12,0,.22.13.22.28,0,.09-.03.16-.07.22-1.57,1.71-4.04,3.37-5.25,3.37-.77,0-1.16-.44-1.16-1.35h-.02c0-1.64,1.45-3.76,2.61-3.76M67.22,27.72c1.27,0,1.83-.89,1.83-1.22,0-.22-.09-.31-.32-.31-.56,0-1.24.68-1.69,1.52.06,0,.12,0,.18,0M68.73,25.12c-1.54,0-3.11,2.48-3.11,4.27v.81l.12-.06c.21.7.76,1.09,1.56,1.09,1.47,0,4.06-1.83,5.62-3.53l.03-.03.02-.03c.1-.15.15-.32.15-.5,0-.43-.32-.78-.72-.78-.21,0-.41.1-.54.27-1.34,1.55-3.72,3.04-4.57,3.04-.14,0-.19-.02-.21-.03,0,0-.02-.07-.02-.26,0-.18.03-.39.09-.62,0,0,.02,0,.02,0,1.82,0,2.81-1.5,2.81-2.27s-.52-1.37-1.26-1.37h0Z"/>
      </g>
      <g>
        <path class="st0" d="M69.1,35.89c-.15,0-.29-.08-.38-.21l-.09.03-.03-.33s0-.14.05-.22c.21-.66,1.51-3.75,2.71-6.59.29-.69.54-1.28.71-1.67.06-.17.23-.3.42-.3.26,0,.47.24.47.53,0,.07,0,.16-.05.25-.02.05-.05.11-.08.17.96-1.31,2.11-2.54,3.06-2.54.6,0,.99.49.99,1.25,0,.41-.09.89-.27,1.4,1.25-.38,2.32-.79,2.97-1.44.08-.08.19-.12.31-.12.26,0,.47.24.47.53,0,.16-.05.29-.16.41-.97.97-2.6,1.45-4.04,1.86-.05.01-.09.02-.12.03-.7,1.23-1.79,2.45-2.71,2.45-.54,0-.93-.42-.93-1.01,0-1.39,1.66-1.93,3.04-2.35.33-.65.52-1.29.52-1.76,0-.15-.02-.19-.03-.19-1.09,0-4.04,3.62-6.42,9.52-.06.18-.23.31-.42.31ZM74.48,29.46c-.95.38-1.17.65-1.17.92.24-.04.68-.33,1.17-.92Z"/>
        <path class="st2" d="M75.9,25.26c.46,0,.74.38.74,1,0,.54-.17,1.17-.44,1.79,1.35-.4,2.76-.84,3.57-1.65.03-.03.08-.05.13-.05.12,0,.22.13.22.28,0,.1-.03.17-.09.23-.92.92-2.52,1.39-3.93,1.8-.08.02-.16.04-.23.08-.71,1.28-1.76,2.39-2.53,2.39-.39,0-.68-.3-.68-.76,0-1.17,1.41-1.67,2.96-2.14.36-.68.6-1.4.6-1.97,0-.32-.09-.44-.31-.44-1.25,0-4.22,3.74-6.62,9.67-.03.09-.11.15-.19.15-.12,0-.22-.13-.22-.28h-.03s0-.06.02-.1c.23-.72,1.72-4.24,2.72-6.6.29-.69.54-1.28.71-1.67.03-.09.11-.15.19-.15.12,0,.22.13.22.28,0,.05,0,.1-.02.14-.17.39-.42.97-.71,1.67-.27.67-.36.89-.34.89.01,0,.08-.11.17-.26,1.65-2.75,3.14-4.3,4.09-4.3M75.16,28.95c-1.59.53-2.1.91-2.1,1.43,0,.12.07.19.25.19.52,0,1.26-.71,1.85-1.62M75.9,24.76c-.88,0-1.86.86-2.77,1.99-.12-.25-.36-.41-.64-.41-.3,0-.57.2-.66.49-.15.35-.41.94-.7,1.63-1.25,2.95-2.49,5.88-2.73,6.62-.04.11-.05.22-.05.28v.69l.3-.1c.12.11.28.17.45.17.3,0,.57-.2.66-.49.8-1.97,1.63-3.63,2.42-4.99.11.58.56.97,1.15.97,1.06,0,2.18-1.3,2.87-2.48,0,0,0,0,0,0,1.48-.43,3.14-.91,4.16-1.93.16-.16.24-.35.24-.58,0-.43-.32-.78-.72-.78-.18,0-.36.07-.48.2-.56.56-1.5.94-2.42,1.24.09-.37.14-.71.14-1.02,0-1.04-.62-1.5-1.24-1.5h0ZM73.66,28.41c.88-1.19,1.62-1.88,2.06-2.05-.02.4-.18.91-.45,1.45-.52.16-1.1.35-1.61.6h0Z"/>
      </g>
      <g>
        <path class="st0" d="M79.66,30.98c-.57,0-1.25-.22-1.38-1.21h-.03s-.02-.38-.02-.38c0-1.66,1.48-4.02,2.86-4.02.6,0,1.01.45,1.01,1.12,0,.61-.87,2.02-2.56,2.02-.07,0-.14,0-.21,0-.1.31-.16.62-.16.87,0,.47.11.54.48.54,1.02,0,3.43-1.59,4.78-3.15.07-.09.2-.16.33-.16.26,0,.47.24.47.53,0,.13-.04.25-.11.36-1.56,1.7-4.1,3.48-5.46,3.48ZM81.09,26.44c-.35,0-.84.41-1.24,1.01.47-.05.77-.25.96-.41.27-.24.35-.48.35-.54l-.07-.06Z"/>
        <path class="st2" d="M81.09,25.62c.46,0,.76.33.76.87,0,.5-.78,1.77-2.31,1.77-.12,0-.25,0-.38-.02-.15.39-.24.79-.24,1.14,0,.57.19.79.73.79,1.1,0,3.59-1.64,4.97-3.24.03-.04.08-.07.14-.07.12,0,.22.13.22.28,0,.09-.03.16-.07.22-1.57,1.71-4.04,3.37-5.25,3.37-.77,0-1.16-.44-1.16-1.35h-.02c0-1.64,1.45-3.76,2.61-3.76M79.58,27.72c1.27,0,1.83-.89,1.83-1.22,0-.22-.09-.31-.32-.31-.56,0-1.24.68-1.69,1.52.06,0,.12,0,.18,0M81.09,25.12c-1.54,0-3.11,2.48-3.11,4.27v.81l.12-.06c.21.7.76,1.09,1.56,1.09,1.47,0,4.06-1.83,5.62-3.53l.03-.03.02-.03c.1-.15.15-.32.15-.5,0-.43-.32-.78-.72-.78-.21,0-.41.1-.54.27-1.34,1.55-3.72,3.04-4.57,3.04-.14,0-.19-.02-.21-.03,0,0-.02-.07-.02-.26,0-.18.03-.39.09-.62,0,0,.02,0,.02,0,1.82,0,2.81-1.5,2.81-2.27s-.52-1.37-1.26-1.37h0Z"/>
      </g>
      <g>
        <path class="st0" d="M82.98,30.04c0-1.88,2.28-4.78,3.75-4.78.41,0,.79.23,1.04.61.01-.02.17-.27.23-.37.08-.14.23-.22.38-.22.26,0,.47.24.47.53,0,.15-.05.25-.1.32-.63,1.03-1.27,2.53-1.27,3.25,0,.53.15.53.36.53.84,0,2.54-1.13,4.03-3.23.1-.12.22-.19.35-.19.26,0,.47.24.47.53,0,.13-.04.25-.11.36-1.76,2.29-3.48,3.59-4.73,3.59-.82,0-1.29-.58-1.29-1.59,0-.13.01-.27.03-.4-1.27,1.52-2.05,2.12-2.7,2.12-.18,0-.51-.05-.72-.35l-.18.38v-1.09ZM86.73,26.31c-.87,0-2.82,2.37-2.82,3.72h0c.56-.09,1.63-1.19,3.24-3.26-.06-.28-.22-.46-.42-.46Z"/>
        <path class="st2" d="M86.73,25.51c.46,0,.85.36,1.02.88.15-.27.32-.51.47-.76.03-.05.09-.1.16-.1.12,0,.22.13.22.28,0,.08-.03.14-.06.19-.63,1.04-1.31,2.59-1.31,3.38,0,.56.17.78.61.78.9,0,2.67-1.14,4.23-3.34.04-.05.09-.08.15-.08.12,0,.22.13.22.28,0,.09-.03.16-.07.22-1.88,2.44-3.49,3.48-4.52,3.48-.67,0-1.04-.46-1.04-1.34,0-.29.07-.66.09-.79.03-.14,0-.2-.04-.2-.04,0-.09.04-.14.1-1.4,1.66-2.23,2.36-2.83,2.36-.42,0-.65-.28-.65-.83v.02c-.01-1.71,2.17-4.53,3.49-4.53M83.88,30.3c.58,0,1.68-1.07,3.54-3.47h-.01c-.05-.44-.32-.77-.68-.77-1.09,0-3.07,2.57-3.07,3.97,0,.23.03.27.22.27M86.73,25.01c-1.73,0-4,3.16-4,5.03v2.12l.5-1c.2.14.43.2.66.2.64,0,1.34-.46,2.44-1.65.1.96.65,1.52,1.52,1.52,1.34,0,3.09-1.31,4.92-3.67.12-.18.17-.35.17-.53,0-.43-.32-.78-.72-.78-.21,0-.4.1-.54.27-1.55,2.18-3.17,3.15-3.84,3.15-.05,0-.08,0-.09,0,0-.01-.02-.09-.02-.27,0-.59.56-1.99,1.24-3.12.06-.1.13-.24.13-.45,0-.43-.32-.78-.72-.78-.24,0-.46.13-.59.34-.01.02-.03.05-.04.07-.28-.28-.64-.43-1.02-.43h0ZM84.21,29.64c.3-1.24,1.85-3.08,2.52-3.08.05,0,.1.06.14.16-1.49,1.91-2.27,2.64-2.66,2.92h0Z"/>
      </g>
      <g>
        <path class="st0" d="M89.46,34.35c-.16,0-.29-.07-.38-.18-.14-.2-.15-.51-.01-.94l.18-.57.02.03c.87-2.47,2.56-6.04,3.93-8.66-1.08.21-2.17.46-3.06.72h-.03s-.09.02-.09.02c-.26,0-.47-.24-.47-.53,0-.26.15-.47.37-.52,1.2-.35,2.62-.67,3.92-.88.16-.25.32-.52.48-.78.43-.72.84-1.4,1.17-1.74.04-.04.16-.16.33-.16.26,0,.47.24.47.53,0,.13-.04.25-.12.35-.26.34-.66.94-1.04,1.53l-.05.07c.79-.09,1.53-.14,2.19-.14.48,0,.92.02,1.32.07.24.02.42.24.42.53s-.21.53-.47.53c-.43-.05-.84-.07-1.29-.07-.83,0-1.79.08-2.86.23-1.37,2.55-3.23,6.4-4.2,9.06.08.12.11.29.04.51-.21.64-.47.97-.77.97Z"/>
        <path class="st2" d="M95.82,20.42c.12,0,.22.13.22.28,0,.08-.03.15-.07.2-.35.45-.91,1.33-1.4,2.07.92-.12,1.84-.2,2.69-.2.46,0,.89.02,1.3.07.12.01.2.13.2.28s-.1.28-.22.28h-.03c-.39-.05-.81-.07-1.25-.07-.95,0-1.99.1-3.03.25-1.52,2.82-3.4,6.76-4.33,9.36.12.05.15.18.09.36-.13.4-.33.8-.53.8-.29,0-.28-.39-.15-.8v.02c.81-2.48,2.73-6.59,4.35-9.63-1.34.24-2.62.54-3.59.82-.02.01-.03.01-.05.01-.12,0-.22-.13-.22-.28,0-.14.07-.25.17-.27,1.06-.31,2.52-.66,4.02-.9.61-.96,1.24-2.12,1.68-2.57.04-.04.09-.08.15-.08M95.82,19.92c-.18,0-.35.08-.5.23-.35.36-.77,1.05-1.21,1.78-.14.23-.28.46-.42.69-1.28.22-2.67.53-3.86.88-.29.06-.53.37-.53.75,0,.43.32.78.72.78.06,0,.13,0,.22-.04.73-.21,1.61-.42,2.5-.61-1.22,2.37-2.64,5.38-3.5,7.66l-.02-.05-.38,1.15c-.16.51-.15.9.05,1.16.13.18.34.29.58.29.43,0,.76-.37,1.01-1.15.08-.24.07-.44,0-.61.96-2.6,2.74-6.3,4.09-8.81,1.01-.14,1.92-.21,2.7-.21.44,0,.84.02,1.19.07h.03s.03,0,.03,0c.43,0,.75-.35.75-.78s-.28-.75-.66-.78c-.39-.05-.85-.07-1.34-.07-.52,0-1.09.03-1.69.08.3-.45.59-.88.79-1.15.11-.14.18-.32.18-.51,0-.43-.32-.78-.72-.78h0Z"/>
      </g>
      <g>
        <path class="st0" d="M95.51,31.12c-.14,0-.26-.06-.36-.16-.12-.13-.17-.32-.14-.53.05-.35.33-.63.63-.63.14,0,.27.06.36.16.12.13.17.32.14.53-.04.35-.33.63-.63.63Z"/>
        <path class="st2" d="M95.64,30.05c.17,0,.28.18.25.41s-.21.41-.38.41-.28-.18-.25-.41c.03-.23.21-.41.38-.41M95.64,29.55c-.43,0-.81.37-.88.85-.04.28.04.54.2.73.14.16.34.25.55.25.43,0,.81-.37.88-.85.04-.28-.04-.54-.2-.73-.14-.16-.34-.25-.55-.25h0Z"/>
      </g>
    </g>
    <g>
      <g>
        <path class="st0" d="M3.58,30.98c-.57,0-1.25-.22-1.39-1.21h-.02s-.02-.38-.02-.38c0-1.8,1.58-4.02,2.86-4.02.61,0,1.01.44,1.01,1.12,0,.61-.87,2.02-2.56,2.02-.07,0-.14,0-.21,0-.1.32-.16.61-.16.87,0,.47.11.54.48.54,1.02,0,3.43-1.59,4.78-3.15.07-.09.2-.16.33-.16.26,0,.47.24.47.53,0,.15-.04.28-.13.38-1.54,1.68-4.09,3.46-5.44,3.46ZM5.02,26.44c-.35,0-.84.41-1.24,1.01.47-.05.77-.25.96-.41.27-.24.35-.48.35-.54l-.07-.06Z"/>
        <path class="st2" d="M5.01,25.62c.47,0,.76.33.76.87,0,.5-.78,1.77-2.31,1.77-.12,0-.25,0-.38-.02-.15.39-.24.79-.24,1.14,0,.57.19.79.73.79,1.1,0,3.59-1.64,4.97-3.24.03-.04.08-.07.14-.07.12,0,.22.13.22.28,0,.09-.02.16-.07.22-1.57,1.71-4.04,3.37-5.25,3.37-.77,0-1.16-.44-1.16-1.35h-.02c0-1.64,1.45-3.76,2.61-3.76M3.51,27.72c1.27,0,1.83-.89,1.83-1.22,0-.22-.09-.31-.32-.31-.56,0-1.24.68-1.69,1.52.06,0,.12,0,.18,0M5.01,25.12c-1.54,0-3.11,2.48-3.11,4.27v.81l.12-.06c.21.7.76,1.09,1.56,1.09,1.47,0,4.06-1.83,5.62-3.53.14-.17.2-.35.2-.56,0-.43-.32-.78-.72-.78-.21,0-.41.1-.54.27-1.34,1.55-3.72,3.04-4.57,3.04-.14,0-.19-.02-.21-.03,0,0-.02-.07-.02-.26,0-.18.03-.39.09-.62,0,0,.02,0,.02,0,1.82,0,2.81-1.5,2.81-2.27,0-.82-.51-1.37-1.26-1.37h0Z"/>
      </g>
      <g>
        <path class="st0" d="M7.81,31.1c-.18,0-.52-.05-.73-.37l-.17.35v-1.04c-.01-1.88,2.27-4.78,3.74-4.78.41,0,.79.23,1.05.61.02-.02.17-.26.23-.36.06-.11.2-.22.37-.22.26,0,.47.24.47.53,0,.13-.04.25-.12.35-.61,1.01-1.25,2.51-1.25,3.22,0,.53.15.53.36.53.84,0,2.54-1.13,4.03-3.23.1-.12.22-.19.35-.19.26,0,.47.24.47.53,0,.13-.04.25-.11.36-1.76,2.29-3.48,3.59-4.73,3.59-.82,0-1.29-.58-1.29-1.59,0-.13.01-.27.03-.4-1.27,1.52-2.06,2.12-2.7,2.12ZM10.66,26.31c-.87,0-2.82,2.37-2.82,3.72h0c.56-.09,1.63-1.19,3.24-3.26-.06-.28-.22-.46-.42-.46Z"/>
        <path class="st2" d="M10.65,25.51c.46,0,.86.36,1.02.88.15-.27.32-.51.47-.76.03-.05.09-.1.16-.1.12,0,.22.13.22.28,0,.08-.02.14-.06.19-.63,1.04-1.31,2.59-1.31,3.38,0,.56.17.78.61.78.9,0,2.67-1.14,4.23-3.34.04-.05.09-.08.15-.08.12,0,.22.13.22.28,0,.09-.03.16-.07.22-1.88,2.44-3.49,3.48-4.52,3.48-.67,0-1.04-.46-1.04-1.34,0-.29.07-.66.09-.79.03-.14,0-.2-.04-.2-.04,0-.09.04-.14.1-1.4,1.66-2.23,2.36-2.83,2.36-.42,0-.65-.28-.65-.83v.02c-.01-1.71,2.17-4.53,3.49-4.53M7.81,30.3c.58,0,1.68-1.07,3.54-3.47h-.01c-.05-.44-.32-.77-.68-.77-1.09,0-3.07,2.57-3.07,3.97,0,.23.03.27.22.27M10.65,25.01c-1.73,0-4,3.16-4,5.03v2.12l.5-1c.2.14.43.19.66.19.64,0,1.34-.46,2.44-1.65.1.96.65,1.52,1.52,1.52,1.34,0,3.09-1.31,4.92-3.67.12-.18.17-.35.17-.53,0-.43-.32-.78-.72-.78-.21,0-.4.1-.54.27-1.55,2.18-3.17,3.15-3.84,3.15-.05,0-.08,0-.09,0,0-.01-.02-.09-.02-.27,0-.59.55-1.98,1.23-3.1.1-.13.14-.29.14-.47,0-.43-.32-.78-.72-.78-.24,0-.46.13-.59.34-.01.02-.03.05-.04.07-.28-.27-.64-.43-1.02-.43h0ZM8.14,29.64c.3-1.24,1.85-3.08,2.52-3.08.05,0,.1.06.14.16-1.49,1.91-2.27,2.64-2.66,2.92h0Z"/>
      </g>
      <g>
        <path class="st0" d="M13.4,34.35c-.16,0-.29-.07-.38-.18-.14-.2-.15-.51-.01-.94l.49-1.54v.19c.92-2.4,2.4-5.5,3.63-7.85-1.08.21-2.17.46-3.06.72h-.03s-.08.02-.08.02c-.26,0-.47-.24-.47-.53,0-.26.15-.47.37-.52,1.19-.35,2.62-.67,3.92-.88.16-.25.32-.52.48-.78.43-.72.84-1.4,1.17-1.73.04-.04.16-.16.33-.16.26,0,.47.24.47.53,0,.19-.08.31-.14.38-.24.31-.63.9-1,1.48l-.07.1c.79-.09,1.53-.14,2.19-.14.48,0,.93.02,1.32.07.24.02.42.24.42.53s-.21.53-.47.53c-.42-.05-.83-.07-1.28-.07-.83,0-1.79.08-2.86.23-1.37,2.55-3.23,6.4-4.2,9.06.08.12.11.29.04.51-.21.64-.47.97-.77.97Z"/>
        <path class="st2" d="M19.75,20.42c.12,0,.22.13.22.28,0,.08-.02.15-.07.2-.35.45-.91,1.33-1.4,2.07.92-.12,1.84-.2,2.69-.2.46,0,.89.02,1.3.07.12.01.2.13.2.28s-.1.28-.22.28h-.02c-.39-.05-.81-.07-1.25-.07-.95,0-1.99.1-3.03.25-1.52,2.82-3.4,6.76-4.33,9.36.12.05.15.18.09.36-.13.4-.33.8-.53.8-.29,0-.28-.39-.15-.8v.02c.8-2.48,2.72-6.59,4.34-9.63-1.34.24-2.62.54-3.59.82-.02.01-.03.01-.05.01-.12,0-.22-.13-.22-.28,0-.14.07-.25.17-.27,1.06-.31,2.52-.66,4.02-.9.61-.96,1.24-2.12,1.68-2.57.04-.04.09-.08.15-.08M19.75,19.92c-.18,0-.35.08-.5.23-.35.36-.77,1.05-1.21,1.78-.14.23-.28.46-.42.69-1.28.22-2.67.53-3.86.88-.29.06-.53.37-.53.75,0,.43.32.78.72.78.06,0,.13,0,.22-.04.73-.21,1.61-.42,2.5-.61-.98,1.89-2.07,4.19-2.92,6.21v-.49l-.98,3.06c-.16.51-.15.9.05,1.16.13.18.34.29.58.29.43,0,.76-.37,1.01-1.15.08-.24.07-.44,0-.61.96-2.6,2.74-6.3,4.09-8.81,1.01-.14,1.92-.21,2.7-.21.44,0,.84.02,1.19.07h.03s.03,0,.03,0c.42,0,.74-.35.74-.78s-.28-.75-.66-.78c-.39-.05-.85-.07-1.34-.07-.52,0-1.09.03-1.69.08.29-.45.58-.87.78-1.13.09-.1.19-.27.19-.52,0-.43-.32-.78-.72-.78h0Z"/>
      </g>
      <g>
        <path class="st0" d="M19.44,31.12c-.14,0-.27-.06-.36-.16-.12-.13-.17-.32-.14-.53.05-.35.33-.63.63-.63.14,0,.27.06.36.16.12.13.17.32.14.53-.04.35-.33.63-.63.63Z"/>
        <path class="st2" d="M19.57,30.05c.17,0,.28.18.25.41-.03.23-.21.41-.38.41s-.28-.18-.25-.41c.03-.23.21-.41.38-.41M19.57,29.55c-.43,0-.81.37-.88.85-.04.28.04.54.2.73.14.16.34.25.55.25.43,0,.81-.37.88-.85.04-.28-.04-.54-.2-.73-.14-.16-.34-.25-.55-.25h0Z"/>
      </g>
      <g>
        <path class="st0" d="M23.32,31.25c-.51,0-.83-.36-.87-.97v-.12c-.01-1.88,2.26-4.78,3.74-4.78.28,0,.52.1.7.29.76-2.31,2.31-5.91,3.77-5.91.51,0,.84.4.84,1.01,0,1.4-2.53,4.96-4.25,7.05-.14.61-.22,1.13-.22,1.53,0,.7.23.7.36.7.47,0,1.61-.42,4.04-3.25.07-.1.2-.17.33-.17.26,0,.47.24.47.53,0,.16-.05.29-.14.39-2.05,2.39-3.59,3.56-4.7,3.56-.81,0-1.29-.66-1.29-1.76,0-.07,0-.15,0-.22-1.31,1.41-2.24,2.12-2.79,2.12ZM26.2,26.44c-.87,0-2.82,2.37-2.82,3.72h0c.43-.13,1.47-1.04,3-2.87-.03-.08-.05-.19-.04-.33.01-.37-.06-.47-.08-.5l-.06-.02ZM30.57,20.83c-.64.17-1.7,2.02-2.55,4.35,1.47-1.99,2.48-3.71,2.55-4.35Z"/>
        <path class="st2" d="M30.66,20.01c.37,0,.59.28.59.76,0,1.16-2.13,4.4-4.23,6.93-.16.66-.24,1.23-.24,1.65,0,.65.19.95.61.95.9,0,2.34-1.14,4.23-3.34.03-.04.08-.08.14-.08.12,0,.22.13.22.28,0,.09-.02.16-.07.21-1.98,2.31-3.49,3.49-4.52,3.49-.66,0-1.04-.55-1.04-1.51,0-.27.03-.6.1-.98-1.33,1.51-2.56,2.63-3.13,2.63-.4,0-.62-.29-.62-.83h-.01c0-1.73,2.18-4.54,3.5-4.54.38,0,.64.24.76.67.86-2.86,2.48-6.29,3.71-6.29M27.32,26.52c1.8-2.29,3.5-4.89,3.5-5.75h0c0-.12-.03-.2-.16-.2-1.04,0-2.54,3.25-3.34,5.95M23.32,30.43c.54,0,1.92-1.37,3.35-3.1h0s0-.04.02-.06c-.07-.01-.1-.12-.09-.3.02-.53-.11-.78-.39-.78-1.09,0-3.07,2.57-3.07,3.97,0,.23.03.27.19.27M30.66,19.51c-1.7,0-3.27,3.94-3.9,5.75-.17-.09-.36-.13-.57-.13-1.73,0-4,3.16-4,5.03v.21l.02.02c.08.82.61,1.11,1.11,1.11.22,0,.83,0,2.55-1.76.13,1.19.84,1.62,1.52,1.62,1.2,0,2.76-1.16,4.9-3.66.12-.12.19-.31.19-.54,0-.43-.32-.78-.72-.78-.21,0-.41.1-.54.28-2.43,2.83-3.49,3.14-3.83,3.14-.03,0-.05,0-.05,0,0,0-.06-.1-.06-.45,0-.36.07-.86.2-1.42,1.52-1.85,4.27-5.59,4.27-7.16,0-.87-.55-1.26-1.09-1.26h0ZM29.2,23.04c.27-.55.54-1,.77-1.33-.19.37-.45.82-.77,1.33h0ZM23.7,29.7c.32-1.17,1.68-2.81,2.38-2.99,0,.05.01.13,0,.25,0,.11,0,.2.01.28-1.13,1.34-1.93,2.12-2.4,2.47h0Z"/>
      </g>
      <g>
        <path class="st0" d="M30.69,30.72c-.05,0-.1,0-.16-.03h-.06l-.09-.08c-.18-.12-.27-.37-.19-.63.4-1.43,1.51-3.88,2-4.65.08-.14.22-.23.38-.23.26,0,.47.24.47.53,0,.12-.04.23-.1.32-.14.24-.36.65-.6,1.18.83-.93,1.78-1.76,2.35-1.76.73,0,.8.87.84,1.45.04.62.1.79.14.82,0,0,.01,0,.02,0,.35,0,.88-.16,1.69-.86.07-.07.17-.11.28-.11.26,0,.47.24.47.53,0,.16-.06.3-.17.42-.82.73-1.59,1.1-2.24,1.1-1,0-1.08-1.17-1.12-1.8,0-.08-.02-.29-.04-.44-.61.29-2.51,2.13-3.47,3.95-.11.24-.3.28-.4.28Z"/>
        <path class="st2" d="M32.57,25.36c.12,0,.22.13.22.28,0,.07-.02.13-.05.17-.23.38-.62,1.17-1.05,2.14-.11.25-.13.38-.08.38.04,0,.12-.07.24-.23,1.11-1.4,2.3-2.47,2.84-2.47.42,0,.53.42.59,1.22.06.84.14,1.06.44,1.06.71,0,1.49-.64,1.82-.93.03-.03.07-.05.12-.05.12,0,.22.13.22.28,0,.1-.04.18-.1.24-.33.29-1.22,1.03-2.06,1.03-.76,0-.83-.95-.87-1.57-.04-.6-.07-.71-.16-.71-.58,0-2.82,2.22-3.82,4.12-.05.1-.11.15-.18.15-.03,0-.07,0-.11-.03h-.03c-.12-.09-.17-.22-.12-.38.39-1.39,1.48-3.81,1.97-4.59.04-.07.1-.11.17-.11M32.57,24.86c-.25,0-.47.14-.6.36-.48.76-1.61,3.24-2.02,4.7-.1.33,0,.68.28.89l.12.12h.13c.07.03.14.04.21.04.13,0,.45-.04.64-.44.77-1.46,2.26-3.02,3.03-3.61,0,0,0,.01,0,.02.04.61.13,2.04,1.37,2.04.71,0,1.52-.39,2.39-1.15.18-.18.27-.39.27-.62,0-.43-.32-.78-.72-.78-.18,0-.35.07-.47.2-.65.57-1.09.74-1.34.77-.02-.1-.04-.28-.06-.59-.04-.59-.13-1.68-1.09-1.68-.41,0-.93.32-1.43.74.02-.07.03-.15.03-.23,0-.43-.32-.78-.72-.78h0Z"/>
      </g>
      <g>
        <path class="st0" d="M37.84,31.1c-.75,0-1.21-.48-1.28-1.34h-.01v-.25c0-1.11.86-3.03,1.45-3.98.06-.13.22-.23.38-.23.26,0,.47.24.47.53,0,.12-.04.23-.1.32-.67,1.1-1.27,2.68-1.27,3.36,0,.53.15.53.36.53.47,0,1.61-.42,4.04-3.25.08-.1.2-.17.33-.17.26,0,.47.24.47.53,0,.14-.04.26-.12.37-2.07,2.41-3.61,3.58-4.72,3.58ZM39.2,24.71c-.26,0-.47-.24-.47-.53,0-.12.04-.23.1-.32.02-.03.06-.1.1-.17.07-.1.14-.22.19-.32.06-.14.22-.25.39-.25.26,0,.47.24.47.53,0,.1-.03.22-.09.31l-.32.53c-.08.13-.23.22-.38.22Z"/>
        <path class="st2" d="M39.52,23.37c.12,0,.22.13.22.28,0,.06-.02.13-.05.18-.1.16-.23.38-.32.52-.04.07-.11.11-.17.11-.12,0-.22-.13-.22-.28,0-.07.02-.13.05-.17.08-.14.23-.35.32-.53.03-.07.1-.11.17-.11M38.38,25.55c.12,0,.22.13.22.28,0,.07-.02.13-.05.17-.71,1.16-1.32,2.77-1.32,3.51,0,.56.17.78.61.78.9,0,2.34-1.14,4.23-3.34.03-.04.08-.08.14-.08.12,0,.22.13.22.28,0,.09-.03.16-.07.21-1.98,2.31-3.49,3.49-4.52,3.49-.67,0-1.04-.46-1.04-1.34h0c0-1.08.88-2.98,1.42-3.85.03-.06.1-.11.17-.11M39.52,22.87c-.27,0-.52.16-.63.41-.04.07-.11.18-.17.27-.04.07-.08.13-.12.19-.08.12-.13.28-.13.44,0,.43.32.78.72.78.25,0,.48-.14.6-.36.04-.06.11-.17.17-.28l.14-.22c.08-.14.13-.3.13-.44,0-.43-.32-.78-.72-.78h0ZM38.38,25.05c-.26,0-.5.15-.62.39-.47.75-1.47,2.79-1.47,4.07v.5h.05c.15.85.68,1.34,1.5,1.34,1.2,0,2.76-1.16,4.9-3.66.13-.16.19-.34.19-.54,0-.43-.32-.78-.72-.78-.21,0-.41.1-.54.28-2.43,2.83-3.49,3.14-3.83,3.14-.05,0-.08,0-.09,0,0-.01-.02-.09-.02-.27,0-.57.53-2.08,1.25-3.25.07-.09.12-.26.12-.43,0-.43-.32-.78-.72-.78h0Z"/>
      </g>
      <g>
        <path class="st0" d="M40.87,31.26c-.33,0-.56-.28-.56-.68,0-.78,1.03-2.77,1.6-3.83l-.46.45,1.3-1.96c.16-.23.36-.36.58-.36.26,0,.47.21.47.49,0,.38-.35.84-.73,1.33l-.1.13c-.38.68-.72,1.33-1,1.9,1.95-2.51,2.87-3.36,3.64-3.36.35,0,.75.25.75.96,0,.48-.19,1.21-.37,1.86-.19.69-.36,1.34-.36,1.73,0,.03,0,.05,0,.07.93-.1,2.61-2.04,3.62-3.21.07-.1.2-.17.33-.17.26,0,.47.24.47.53,0,.16-.05.29-.14.38-1.52,1.78-3.11,3.52-4.32,3.52-.43,0-.88-.3-.88-1.14,0-.53.17-1.17.34-1.79l.14-.55c.12-.45.23-.88.26-1.17-.63.25-2.31,2.42-2.88,3.17-.93,1.19-1.31,1.68-1.69,1.68Z"/>
        <path class="st2" d="M43.32,25.14c.11,0,.22.09.22.24,0,.33-.42.84-.78,1.31-.61,1.09-1.11,2.08-1.43,2.83-.09.22-.11.38-.04.38.04,0,.12-.06.24-.2.15-.18.32-.4.51-.65,1.89-2.45,2.86-3.42,3.56-3.42.32,0,.5.27.5.71s-.18,1.14-.36,1.79c-.19.69-.37,1.37-.37,1.8,0,.26.05.32.2.32.95,0,2.45-1.67,3.86-3.3.03-.04.08-.08.14-.08.12,0,.22.13.22.28,0,.09-.02.16-.07.21-1.41,1.65-3.03,3.45-4.14,3.45-.4,0-.63-.32-.63-.89s.22-1.31.4-2c.17-.65.34-1.23.34-1.6,0-.16-.07-.18-.16-.18-.46,0-1.38.97-3.17,3.29-.78,1-1.23,1.58-1.49,1.58-.19,0-.31-.18-.31-.43,0-.58.73-2.22,1.82-4.16.24-.45.42-.79.59-1.05l-.02.02c.1-.15.23-.25.37-.25M43.32,24.64c-.3,0-.58.17-.79.47h0c-.17.27-.35.6-.57,1.02l-.03.05c-.56,1-1.88,3.45-1.88,4.4,0,.54.34.93.81.93.5,0,.87-.48,1.86-1.75,1.21-1.57,1.92-2.38,2.34-2.78-.04.17-.09.35-.14.54l-.07.27-.07.27c-.17.64-.34,1.29-.34,1.85,0,1.03.61,1.39,1.13,1.39,1.31,0,2.89-1.71,4.52-3.63.12-.11.19-.3.19-.53,0-.43-.32-.78-.72-.78-.21,0-.41.1-.54.28-.81.94-2.27,2.62-3.14,3.02.06-.41.22-.99.33-1.4.23-.82.38-1.46.38-1.92,0-.84-.5-1.21-1-1.21-.54,0-1.11.33-1.95,1.21.23-.33.39-.65.39-.96,0-.41-.32-.74-.72-.74h0Z"/>
      </g>
      <g>
        <path class="st0" d="M47.47,32.78c-.26,0-.47-.24-.47-.53,0-.04,0-.13.04-.2.48-1.67,3.3-8.05,5.28-11.14.02-.04.05-.08.07-.11l-.17.08.75-.9c.16-.19.34-.29.52-.29.27,0,.5.24.5.53,0,.39-.38.77-.81,1.22l-.16.16c-1.08,1.66-2.54,4.66-3.61,7.06,1.02-1.25,2.59-2.94,3.54-2.94.49,0,.85.4.85.95,0,1.16-1.38,2.38-3.26,2.91.22.36.55.59.77.59.98,0,3.03-1.49,4.67-3.38.08-.1.2-.17.33-.17.26,0,.47.24.47.53,0,.16-.05.29-.14.39-1.26,1.48-3.73,3.69-5.32,3.69-.63,0-1.31-.55-1.67-1.29-.67.86-1.29,1.77-1.78,2.61-.09.15-.23.24-.39.24h-.02ZM52.83,26.79c-.29.1-.91.54-1.81,1.49.99-.43,1.69-1.04,1.81-1.49Z"/>
        <path class="st2" d="M53.49,19.94c.13,0,.25.13.25.28,0,.33-.46.75-.9,1.2-1.23,1.87-2.92,5.41-4.04,8.01-.12.27-.16.44-.09.44.04,0,.14-.08.28-.28,1.4-1.83,3.11-3.63,3.96-3.63.35,0,.6.28.6.7,0,1.12-1.49,2.3-3.37,2.75.22.55.71,1,1.13,1,1.07,0,3.16-1.5,4.86-3.47.03-.04.08-.08.14-.08.12,0,.22.13.22.28,0,.09-.02.16-.07.21-1.42,1.66-3.75,3.62-5.14,3.62-.64,0-1.36-.71-1.59-1.54-.76.94-1.5,2-2.07,2.98-.04.07-.1.12-.17.12h-.02c-.12,0-.22-.13-.22-.28,0-.03,0-.08.02-.1.43-1.54,3.28-8.01,5.26-11.11.24-.38.46-.67.65-.91h-.02c.11-.12.22-.19.33-.19M50.19,28.84c1.58-.42,2.91-1.43,2.91-2.18h.01c0-.09-.03-.14-.17-.14-.49,0-1.6.98-2.75,2.32M53.49,19.44c-.26,0-.5.13-.71.38l-1.57,1.86.5-.25c-1.94,3.26-4.43,8.93-4.9,10.53-.06.12-.06.24-.06.29,0,.43.32.78.72.78.27,0,.49-.14.62-.37.43-.73.95-1.52,1.53-2.28.42.65,1.07,1.09,1.7,1.09,1.8,0,4.4-2.48,5.52-3.79.12-.12.19-.3.19-.54,0-.43-.32-.78-.72-.78-.21,0-.41.1-.54.28-1.74,2.01-3.67,3.27-4.46,3.27-.08,0-.21-.07-.35-.21,1.82-.62,3.09-1.83,3.09-3.04,0-.7-.46-1.2-1.1-1.2-.72,0-1.7.8-2.61,1.76.94-2.01,2.02-4.15,2.89-5.48l.12-.12c.48-.48.89-.9.89-1.39,0-.42-.34-.78-.75-.78h0Z"/>
      </g>
      <g>
        <path class="st0" d="M56.35,31.12c-.14,0-.27-.06-.36-.16-.12-.13-.17-.32-.14-.53.04-.35.33-.63.63-.63.14,0,.27.06.36.16.12.13.17.32.14.53-.04.35-.33.63-.63.63Z"/>
        <path class="st2" d="M56.48,30.05c.17,0,.28.18.25.41-.03.23-.21.41-.38.41s-.28-.18-.25-.41c.03-.23.21-.41.38-.41M56.48,29.55c-.43,0-.81.37-.88.85-.04.28.04.54.2.73.14.16.34.25.55.25.43,0,.81-.37.88-.85.04-.28-.04-.54-.2-.73-.14-.16-.34-.25-.55-.25h0Z"/>
      </g>
      <g>
        <path class="st0" d="M60.14,30.72c-.05,0-.1,0-.16-.03h-.06l-.09-.08c-.18-.12-.26-.37-.18-.62.4-1.44,1.51-3.88,2-4.65.08-.14.22-.23.38-.23.26,0,.47.24.47.53,0,.12-.04.23-.1.32-.14.23-.36.66-.6,1.18.83-.93,1.78-1.76,2.35-1.76.73,0,.8.87.84,1.45.04.62.1.79.14.82,0,0,.01,0,.02,0,.35,0,.88-.16,1.69-.86.07-.07.17-.11.28-.11.26,0,.47.24.47.53,0,.16-.06.3-.17.42-.83.73-1.6,1.1-2.24,1.1-1,0-1.08-1.17-1.12-1.8,0-.08-.02-.29-.04-.44-.61.29-2.51,2.13-3.47,3.95-.11.24-.3.28-.4.28Z"/>
        <path class="st2" d="M62.02,25.36c.12,0,.22.13.22.28,0,.07-.02.13-.05.17-.23.38-.62,1.17-1.05,2.14-.11.25-.13.38-.08.38.04,0,.12-.07.24-.23,1.11-1.4,2.3-2.47,2.84-2.47.42,0,.53.42.59,1.22.06.84.14,1.06.44,1.06.71,0,1.49-.64,1.82-.93.03-.03.07-.05.12-.05.12,0,.22.13.22.28,0,.1-.04.18-.1.24-.33.29-1.22,1.03-2.06,1.03-.76,0-.83-.95-.87-1.57-.04-.6-.07-.71-.16-.71-.58,0-2.82,2.22-3.82,4.12-.05.1-.11.15-.18.15-.03,0-.07,0-.11-.03h-.03c-.12-.09-.17-.22-.12-.38.39-1.39,1.48-3.81,1.97-4.59.04-.07.1-.11.17-.11M62.02,24.86c-.25,0-.47.14-.6.36-.48.76-1.61,3.24-2.02,4.7-.1.33,0,.68.28.89l.12.12h.13c.07.03.14.04.21.04.13,0,.45-.04.64-.44.77-1.46,2.26-3.02,3.03-3.61,0,0,0,.01,0,.02.04.61.13,2.04,1.37,2.04.71,0,1.52-.39,2.39-1.15.18-.18.27-.39.27-.62,0-.43-.32-.78-.72-.78-.18,0-.35.07-.47.2-.65.57-1.09.74-1.34.77-.02-.1-.04-.28-.06-.59-.04-.59-.13-1.68-1.09-1.68-.41,0-.93.32-1.43.74.02-.07.03-.15.03-.23,0-.43-.32-.78-.72-.78h0Z"/>
      </g>
      <g>
        <path class="st0" d="M67.3,30.98c-.57,0-1.25-.22-1.38-1.21h-.02s-.02-.38-.02-.38c0-1.66,1.48-4.02,2.86-4.02.6,0,1.01.45,1.01,1.12,0,.61-.87,2.02-2.57,2.02-.07,0-.14,0-.21,0-.1.31-.16.62-.16.87,0,.47.11.54.48.54,1.02,0,3.43-1.59,4.78-3.15.07-.09.2-.16.33-.16.26,0,.47.24.47.53,0,.13-.04.25-.11.36-1.55,1.7-4.1,3.48-5.46,3.48ZM68.73,26.44c-.35,0-.84.41-1.24,1.01.47-.05.77-.25.96-.41.27-.24.35-.48.35-.54l-.07-.06Z"/>
        <path class="st2" d="M68.73,25.62c.46,0,.76.33.76.87,0,.5-.78,1.77-2.31,1.77-.12,0-.25,0-.38-.02-.15.39-.24.79-.24,1.14,0,.57.19.79.73.79,1.1,0,3.59-1.64,4.97-3.24.03-.04.08-.07.14-.07.12,0,.22.13.22.28,0,.09-.03.16-.07.22-1.57,1.71-4.04,3.37-5.25,3.37-.77,0-1.16-.44-1.16-1.35h-.02c0-1.64,1.45-3.76,2.61-3.76M67.22,27.72c1.27,0,1.83-.89,1.83-1.22,0-.22-.09-.31-.32-.31-.56,0-1.24.68-1.69,1.52.06,0,.12,0,.18,0M68.73,25.12c-1.54,0-3.11,2.48-3.11,4.27v.81l.12-.06c.21.7.76,1.09,1.56,1.09,1.47,0,4.06-1.83,5.62-3.53l.03-.03.02-.03c.1-.15.15-.32.15-.5,0-.43-.32-.78-.72-.78-.21,0-.41.1-.54.27-1.34,1.55-3.72,3.04-4.57,3.04-.14,0-.19-.02-.21-.03,0,0-.02-.07-.02-.26,0-.18.03-.39.09-.62,0,0,.02,0,.02,0,1.82,0,2.81-1.5,2.81-2.27s-.52-1.37-1.26-1.37h0Z"/>
      </g>
      <g>
        <path class="st0" d="M69.1,35.89c-.15,0-.29-.08-.38-.21l-.09.03-.03-.33s0-.14.05-.22c.21-.66,1.51-3.75,2.71-6.59.29-.69.54-1.28.71-1.67.06-.17.23-.3.42-.3.26,0,.47.24.47.53,0,.07,0,.16-.05.25-.02.05-.05.11-.08.17.96-1.31,2.11-2.54,3.06-2.54.6,0,.99.49.99,1.25,0,.41-.09.89-.27,1.4,1.25-.38,2.32-.79,2.97-1.44.08-.08.19-.12.31-.12.26,0,.47.24.47.53,0,.16-.05.29-.16.41-.97.97-2.6,1.45-4.04,1.86-.05.01-.09.02-.12.03-.7,1.23-1.79,2.45-2.71,2.45-.54,0-.93-.42-.93-1.01,0-1.39,1.66-1.93,3.04-2.35.33-.65.52-1.29.52-1.76,0-.15-.02-.19-.03-.19-1.09,0-4.04,3.62-6.42,9.52-.06.18-.23.31-.42.31ZM74.48,29.46c-.95.38-1.17.65-1.17.92.24-.04.68-.33,1.17-.92Z"/>
        <path class="st2" d="M75.9,25.26c.46,0,.74.38.74,1,0,.54-.17,1.17-.44,1.79,1.35-.4,2.76-.84,3.57-1.65.03-.03.08-.05.13-.05.12,0,.22.13.22.28,0,.1-.03.17-.09.23-.92.92-2.52,1.39-3.93,1.8-.08.02-.16.04-.23.08-.71,1.28-1.76,2.39-2.53,2.39-.39,0-.68-.3-.68-.76,0-1.17,1.41-1.67,2.96-2.14.36-.68.6-1.4.6-1.97,0-.32-.09-.44-.31-.44-1.25,0-4.22,3.74-6.62,9.67-.03.09-.11.15-.19.15-.12,0-.22-.13-.22-.28h-.03s0-.06.02-.1c.23-.72,1.72-4.24,2.72-6.6.29-.69.54-1.28.71-1.67.03-.09.11-.15.19-.15.12,0,.22.13.22.28,0,.05,0,.1-.02.14-.17.39-.42.97-.71,1.67-.27.67-.36.89-.34.89.01,0,.08-.11.17-.26,1.65-2.75,3.14-4.3,4.09-4.3M75.16,28.95c-1.59.53-2.1.91-2.1,1.43,0,.12.07.19.25.19.52,0,1.26-.71,1.85-1.62M75.9,24.76c-.88,0-1.86.86-2.77,1.99-.12-.25-.36-.41-.64-.41-.3,0-.57.2-.66.49-.15.35-.41.94-.7,1.63-1.25,2.95-2.49,5.88-2.73,6.62-.04.11-.05.22-.05.28v.69l.3-.1c.12.11.28.17.45.17.3,0,.57-.2.66-.49.8-1.97,1.63-3.63,2.42-4.99.11.58.56.97,1.15.97,1.06,0,2.18-1.3,2.87-2.48,0,0,0,0,0,0,1.48-.43,3.14-.91,4.16-1.93.16-.16.24-.35.24-.58,0-.43-.32-.78-.72-.78-.18,0-.36.07-.48.2-.56.56-1.5.94-2.42,1.24.09-.37.14-.71.14-1.02,0-1.04-.62-1.5-1.24-1.5h0ZM73.66,28.41c.88-1.19,1.62-1.88,2.06-2.05-.02.4-.18.91-.45,1.45-.52.16-1.1.35-1.61.6h0Z"/>
      </g>
      <g>
        <path class="st0" d="M79.66,30.98c-.57,0-1.25-.22-1.38-1.21h-.03s-.02-.38-.02-.38c0-1.66,1.48-4.02,2.86-4.02.6,0,1.01.45,1.01,1.12,0,.61-.87,2.02-2.56,2.02-.07,0-.14,0-.21,0-.1.31-.16.62-.16.87,0,.47.11.54.48.54,1.02,0,3.43-1.59,4.78-3.15.07-.09.2-.16.33-.16.26,0,.47.24.47.53,0,.13-.04.25-.11.36-1.56,1.7-4.1,3.48-5.46,3.48ZM81.09,26.44c-.35,0-.84.41-1.24,1.01.47-.05.77-.25.96-.41.27-.24.35-.48.35-.54l-.07-.06Z"/>
        <path class="st2" d="M81.09,25.62c.46,0,.76.33.76.87,0,.5-.78,1.77-2.31,1.77-.12,0-.25,0-.38-.02-.15.39-.24.79-.24,1.14,0,.57.19.79.73.79,1.1,0,3.59-1.64,4.97-3.24.03-.04.08-.07.14-.07.12,0,.22.13.22.28,0,.09-.03.16-.07.22-1.57,1.71-4.04,3.37-5.25,3.37-.77,0-1.16-.44-1.16-1.35h-.02c0-1.64,1.45-3.76,2.61-3.76M79.58,27.72c1.27,0,1.83-.89,1.83-1.22,0-.22-.09-.31-.32-.31-.56,0-1.24.68-1.69,1.52.06,0,.12,0,.18,0M81.09,25.12c-1.54,0-3.11,2.48-3.11,4.27v.81l.12-.06c.21.7.76,1.09,1.56,1.09,1.47,0,4.06-1.83,5.62-3.53l.03-.03.02-.03c.1-.15.15-.32.15-.5,0-.43-.32-.78-.72-.78-.21,0-.41.1-.54.27-1.34,1.55-3.72,3.04-4.57,3.04-.14,0-.19-.02-.21-.03,0,0-.02-.07-.02-.26,0-.18.03-.39.09-.62,0,0,.02,0,.02,0,1.82,0,2.81-1.5,2.81-2.27s-.52-1.37-1.26-1.37h0Z"/>
      </g>
      <g>
        <path class="st0" d="M82.98,30.04c0-1.88,2.28-4.78,3.75-4.78.41,0,.79.23,1.04.61.01-.02.17-.27.23-.37.08-.14.23-.22.38-.22.26,0,.47.24.47.53,0,.15-.05.25-.1.32-.63,1.03-1.27,2.53-1.27,3.25,0,.53.15.53.36.53.84,0,2.54-1.13,4.03-3.23.1-.12.22-.19.35-.19.26,0,.47.24.47.53,0,.13-.04.25-.11.36-1.76,2.29-3.48,3.59-4.73,3.59-.82,0-1.29-.58-1.29-1.59,0-.13.01-.27.03-.4-1.27,1.52-2.05,2.12-2.7,2.12-.18,0-.51-.05-.72-.35l-.18.38v-1.09ZM86.73,26.31c-.87,0-2.82,2.37-2.82,3.72h0c.56-.09,1.63-1.19,3.24-3.26-.06-.28-.22-.46-.42-.46Z"/>
        <path class="st2" d="M86.73,25.51c.46,0,.85.36,1.02.88.15-.27.32-.51.47-.76.03-.05.09-.1.16-.1.12,0,.22.13.22.28,0,.08-.03.14-.06.19-.63,1.04-1.31,2.59-1.31,3.38,0,.56.17.78.61.78.9,0,2.67-1.14,4.23-3.34.04-.05.09-.08.15-.08.12,0,.22.13.22.28,0,.09-.03.16-.07.22-1.88,2.44-3.49,3.48-4.52,3.48-.67,0-1.04-.46-1.04-1.34,0-.29.07-.66.09-.79.03-.14,0-.2-.04-.2-.04,0-.09.04-.14.1-1.4,1.66-2.23,2.36-2.83,2.36-.42,0-.65-.28-.65-.83v.02c-.01-1.71,2.17-4.53,3.49-4.53M83.88,30.3c.58,0,1.68-1.07,3.54-3.47h-.01c-.05-.44-.32-.77-.68-.77-1.09,0-3.07,2.57-3.07,3.97,0,.23.03.27.22.27M86.73,25.01c-1.73,0-4,3.16-4,5.03v2.12l.5-1c.2.14.43.2.66.2.64,0,1.34-.46,2.44-1.65.1.96.65,1.52,1.52,1.52,1.34,0,3.09-1.31,4.92-3.67.12-.18.17-.35.17-.53,0-.43-.32-.78-.72-.78-.21,0-.4.1-.54.27-1.55,2.18-3.17,3.15-3.84,3.15-.05,0-.08,0-.09,0,0-.01-.02-.09-.02-.27,0-.59.56-1.99,1.24-3.12.06-.1.13-.24.13-.45,0-.43-.32-.78-.72-.78-.24,0-.46.13-.59.34-.01.02-.03.05-.04.07-.28-.28-.64-.43-1.02-.43h0ZM84.21,29.64c.3-1.24,1.85-3.08,2.52-3.08.05,0,.1.06.14.16-1.49,1.91-2.27,2.64-2.66,2.92h0Z"/>
      </g>
      <g>
        <path class="st0" d="M89.46,34.35c-.16,0-.29-.07-.38-.18-.14-.2-.15-.51-.01-.94l.18-.57.02.03c.87-2.47,2.56-6.04,3.93-8.66-1.08.21-2.17.46-3.06.72h-.03s-.09.02-.09.02c-.26,0-.47-.24-.47-.53,0-.26.15-.47.37-.52,1.2-.35,2.62-.67,3.92-.88.16-.25.32-.52.48-.78.43-.72.84-1.4,1.17-1.74.04-.04.16-.16.33-.16.26,0,.47.24.47.53,0,.13-.04.25-.12.35-.26.34-.66.94-1.04,1.53l-.05.07c.79-.09,1.53-.14,2.19-.14.48,0,.92.02,1.32.07.24.02.42.24.42.53s-.21.53-.47.53c-.43-.05-.84-.07-1.29-.07-.83,0-1.79.08-2.86.23-1.37,2.55-3.23,6.4-4.2,9.06.08.12.11.29.04.51-.21.64-.47.97-.77.97Z"/>
        <path class="st2" d="M95.82,20.42c.12,0,.22.13.22.28,0,.08-.03.15-.07.2-.35.45-.91,1.33-1.4,2.07.92-.12,1.84-.2,2.69-.2.46,0,.89.02,1.3.07.12.01.2.13.2.28s-.1.28-.22.28h-.03c-.39-.05-.81-.07-1.25-.07-.95,0-1.99.1-3.03.25-1.52,2.82-3.4,6.76-4.33,9.36.12.05.15.18.09.36-.13.4-.33.8-.53.8-.29,0-.28-.39-.15-.8v.02c.81-2.48,2.73-6.59,4.35-9.63-1.34.24-2.62.54-3.59.82-.02.01-.03.01-.05.01-.12,0-.22-.13-.22-.28,0-.14.07-.25.17-.27,1.06-.31,2.52-.66,4.02-.9.61-.96,1.24-2.12,1.68-2.57.04-.04.09-.08.15-.08M95.82,19.92c-.18,0-.35.08-.5.23-.35.36-.77,1.05-1.21,1.78-.14.23-.28.46-.42.69-1.28.22-2.67.53-3.86.88-.29.06-.53.37-.53.75,0,.43.32.78.72.78.06,0,.13,0,.22-.04.73-.21,1.61-.42,2.5-.61-1.22,2.37-2.64,5.38-3.5,7.66l-.02-.05-.38,1.15c-.16.51-.15.9.05,1.16.13.18.34.29.58.29.43,0,.76-.37,1.01-1.15.08-.24.07-.44,0-.61.96-2.6,2.74-6.3,4.09-8.81,1.01-.14,1.92-.21,2.7-.21.44,0,.84.02,1.19.07h.03s.03,0,.03,0c.43,0,.75-.35.75-.78s-.28-.75-.66-.78c-.39-.05-.85-.07-1.34-.07-.52,0-1.09.03-1.69.08.3-.45.59-.88.79-1.15.11-.14.18-.32.18-.51,0-.43-.32-.78-.72-.78h0Z"/>
      </g>
      <g>
        <path class="st0" d="M95.51,31.12c-.14,0-.26-.06-.36-.16-.12-.13-.17-.32-.14-.53.05-.35.33-.63.63-.63.14,0,.27.06.36.16.12.13.17.32.14.53-.04.35-.33.63-.63.63Z"/>
        <path class="st2" d="M95.64,30.05c.17,0,.28.18.25.41s-.21.41-.38.41-.28-.18-.25-.41c.03-.23.21-.41.38-.41M95.64,29.55c-.43,0-.81.37-.88.85-.04.28.04.54.2.73.14.16.34.25.55.25.43,0,.81-.37.88-.85.04-.28-.04-.54-.2-.73-.14-.16-.34-.25-.55-.25h0Z"/>
      </g>
    </g>
  </g>
</svg>